<svg version="1.0" xmlns="http://www.w3.org/2000/svg" width="2137.333" height="1400" viewBox="0 0 1603 1050"><path d="M552.5 4c-.9 2.8-15.7 11.6-38.9 23.2-22.9 11.4-32.4 17.4-36.3 23.1-2.4 3.4-2.8 5.2-3.4 14-1 16.7 0 29.5 2.7 33.8 2.9 4.7 7 7.9 10 7.9 2.7 0 3.3-2.7.8-3.7-4-1.5-9.4-9.4-9.4-13.7 0-2.9 2-3.3 8-1.6 4.1 1.2 11.4 2.2 15.2 2.2 1.5-.1 3 .3 3.3.8.4.6 5.4 1 11.3 1 10.3 0 20.4-1.3 36.2-4.7 4.1-.9 10.3-2.1 13.7-2.7 3.4-.6 6.5-1.4 6.9-1.9.4-.4 2.3-.7 4.1-.7 1.9 0 4.3-.5 5.4-1.1 1.1-.6 4.1-1.4 6.7-1.8 5.6-1 13.9-3.1 16.7-4.2 3.3-1.3 17.8-5.6 21.3-6.4 1.7-.4 3.2-1.1 3.2-1.6s1.2-.9 2.8-.9c1.5 0 3.6-.7 4.6-1.5 1.1-.8 3-1.5 4.3-1.5 1.3 0 3.1-.4 4.1-.9 2.9-1.4 8.6-3.3 11.7-3.9 1.7-.2 3.9-1.1 5-1.8 1.1-.8 3.2-1.4 4.7-1.4s3-.5 3.3-1c.3-.6 1.8-1 3.3-1 1.5-.1 3.8-.7 5.2-1.5 1.4-.8 3.7-1.4 5.2-1.5 1.5 0 3-.5 3.3-1 .3-.6 2.1-1 3.9-1 1.9 0 3.9-.7 4.6-1.5.7-.8 2.4-1.5 3.9-1.5 1.4 0 3.5-.7 4.5-1.5 1.1-.8 3.2-1.5 4.7-1.5s3.1-.5 3.4-1c.3-.6 1.9-1 3.4-1s3.6-.7 4.7-1.5c1-.8 2.9-1.5 4.1-1.5 1.2 0 3.2-.4 4.5-.9 1.3-.4 5-1.6 8.3-2.6 3.3-.9 7.2-2.3 8.7-3.1 1.4-.8 3.8-1.4 5.2-1.4 1.4 0 2.6-.5 2.6-1 0-.6 1.5-1 3.3-1 1.7 0 4.1-.7 5.1-1.5 1.1-.8 3.4-1.5 5.2-1.5 1.8 0 3.5-.4 3.8-.9.3-.5 2.6-1.2 5.1-1.5 2.4-.4 4.7-1.1 5-1.7.4-.5 1.4-.9 2.4-.9s3.2-.7 4.7-1.5c1.6-.8 3.9-1.5 5.1-1.5 1.2 0 2.5-.5 2.8-1 .3-.6 1.8-1 3.2-1 1.4 0 3.9-.6 5.6-1.4 3.6-1.5 17.7-6 22-7 1.5-.4 2.7-1.1 2.7-1.6 0-.7-48.6-1-138.4-1-137 0-138.5 0-139.1 2zM1330 7.5c-3.5 2.9-6.6 5.8-6.8 6.4-.7 2 3.7 1.1 5.2-1.1 1.1-1.6 2.8-2.2 6.9-2.6 5.2-.4 5.5-.3 8.1 3 1.4 1.9 2.6 4 2.6 4.6 0 .6 2.1 3.4 4.6 6.3 5 5.6 6.4 8.5 6.4 13 0 1.6.6 3.1 1.3 3.3.6.2 2.6.8 4.4 1.3 2.4.8 3.6.8 4.9-.2 1.5-1.1 1.3-1.6-2.4-5.4-4.2-4.3-9.2-12.3-9.2-14.6 0-.7-2-4.2-4.5-7.9-2.5-3.6-5-7.7-5.5-9.1-.8-2.2-1.5-2.5-5.2-2.4-3.7 0-5.3.8-10.8 5.4zm188.7-2.7c-2.9 1.7-5.5 6.9-6.4 12.9-.3 2.1-.1 3.3.6 3.3 1.4 0 1.4 5.3 0 6.7-1.4 1.4-1.5 16.5 0 20.5 2.5 6.5 3.5 7.9 6.8 9.5 1.8.8 3.3 1.9 3.3 2.4 0 1.3 23.8 1.1 28-.2 1.9-.5 5.5-1.4 8-1.9 4.2-.8 12.5-2.8 21-5 1.9-.5 6.4-1.6 10-2.4 3.6-.8 7.7-1.8 9.3-2.2l2.7-.6V3l-40.2.1c-35.8 0-40.6.2-43.1 1.7zm-203 15.2c-5.1 3.1-5.9 5.3-6.4 17.3-.5 10.6-.7 11.3-3.2 13.4-2.2 1.9-2.4 2.4-1.1 3.3.8.5 3.2 1 5.3 1h3.7v-8.3c.1-5.2.6-9.1 1.5-10.7.8-1.4 1.4-4.7 1.5-7.3 0-2.7.5-5.7 1.1-6.8 1.6-3.1.7-3.8-2.4-1.9z"/><path d="M1389.5 36.2c-9.1 4.5-22.4 10-51.5 21.1-3.6 1.4-11.4 4.6-17.5 7.2-6 2.5-13.7 5.5-17 6.6-6.3 2.2-6.7 2.4-21.1 8.8-17.7 7.9-31.1 15-40.8 21.5-5.4 3.6-10.6 6.6-11.5 6.6-.9 0-2.4.9-3.4 2-1.8 2.1-4.7 2.7-4.7.9 0-.6.9-1.3 2-1.6 1.1-.3 2-1.1 2-1.7 0-3.3-13.4-12-26.9-17.6-8.8-3.7-11.4-5.3-16.8-10.6-3.5-3.4-6.3-6.9-6.3-7.8 0-2.3-.4-2.1-6.4 2.4-2.9 2.2-5.7 4-6.1 4-1.7 0-11.2 6.6-17.1 11.9-11.2 9.9-23.5 15-29.1 12-1.9-1-2.8-1.1-4.1-.1-.9.7-2.4 1.5-3.2 1.9-.8.4-1.7.9-2 1.3-.3.3-4.6 3.1-9.5 6.2-5 3-12.4 7.8-16.5 10.5-4.1 2.8-9.7 6.3-12.5 7.8-2.7 1.5-8.1 4.8-11.8 7.3-7.8 5.2-10.7 10-10.7 17.9-.1 2.6-.7 8.7-1.4 13.6-1.3 8.3-.8 18.3.6 13 .6-2.1 1-2.1 10.4-1.7 5.5.3 12.1 1 14.7 1.5 7.2 1.4 19.4 1.1 27.2-.7 14-3.1 18.1-4.2 24-6.1 3.3-1.1 8.7-2.8 12-3.8 13.2-3.8 52.9-16.7 57-18.4 1.1-.5 4.5-1.6 7.5-2.5 3-1 6.4-2.1 7.5-2.5 4.1-1.6 9.1-3.3 11-3.8 1.1-.2 2.9-.8 4-1.3s4.5-1.6 7.5-2.6c3-.9 6.9-2.3 8.7-3.1 1.7-.7 3.8-1.3 4.6-1.3.9 0 1.9-.5 2.2-1 .3-.6 1.6-1 2.8-1 1.3 0 3.1-.6 4.2-1.4 1.1-.7 3.1-1.6 4.5-1.8 1.4-.3 5.9-1.8 10-3.3 18.6-6.9 23.7-8.7 26.5-9.5 6.1-1.7 12.3-3.9 17.1-5.8 2.7-1.1 10.1-3.9 16.4-6.2 27.6-10 38.7-14.2 41.3-15.5 1.6-.8 3.7-1.5 4.7-1.5s2.1-.4 2.5-1c.3-.5 2-1.4 3.8-1.9 1.8-.5 5.6-1.9 8.6-3 7.3-2.7 12.9-8.1 8.6-8.1-.8 0-1.5-.5-1.5-1.1 0-.5-1-.3-2.2.5-1.2.9-2.9 1.6-3.6 1.6-.7 0-2 .7-2.9 1.5-.8.9-2.8 1.9-4.4 2.2-1.5.3-3 1.1-3.3 1.9-.3.8-1.4 1.4-2.5 1.4s-2.3.4-2.6 1c-.3.5-1.9 1-3.4 1s-3.2.5-3.8 1.1c-1.4 1.4-7.4 2.8-14.8 3.5-3.4.3-6.5 1.1-7.1 1.9-.5.7-2.3 1.7-4 2.1-1.6.4-3.3 1-3.9 1.4-.5.4-2.6 1-4.5 1.3-1.9.3-5 .9-6.9 1.3-2.6.5-3.3.4-2.9-.7.7-2.1 13.5-9 17.7-9.6 2-.2 5.3-1.2 7.5-2.1 3.6-1.5 3.9-1.5 5.2.3 1.7 2.3 2.1 1.9 4.3-4.1 2-5.7 4.4-6.8 5.9-2.7 1 2.9 1.4 2.5 2.6-3 .4-1.5 1.3-3 2.1-3.2.8-.3 2.3-.8 3.3-1.1.9-.4 5-.8 9.1-1 4-.1 7.8-.7 8.4-1.3.6-.6 1-3.2.8-5.8-.2-3.8-.8-5.5-3.2-7.9-3.9-4-3.6-6.9.6-6.9 2.6 0 3.2.5 4.2 3.8.7 2.1 2.4 5.4 3.8 7.5 1.4 2 2.5 4.3 2.5 5 0 1 .7 1.2 2.3.8 8.6-2.5 10.2-1.5 3.7 2.2-2.9 1.6-4 2.9-4 4.7 0 4.3 3.4 4.1 9.5-.7 5.8-4.5 6.4-5.8 4-7.8-.8-.7-1.2-1.6-.9-2.1.5-.9-2.2-10.5-3.6-12.4-.4-.6-1-2.1-1.3-3.5-1-4.2-6.5-12-8.4-11.9-1 0-4.5 1.4-7.8 3.1zm-1180 4c-8.9 2.9-12.2 3.8-13.7 3.8-1 0-1.8.8-1.9 1.7 0 1-.2 9.9-.4 19.8s-.7 25.8-1 35.2c-.6 16.8-.5 17.3 1.4 17.3 2.6 0 5.1 1 5.1 2 0 .7-7.8 5.8-20.1 13.2-3.9 2.4-58 35.6-59.9 36.8-.8.6-2.2 1.3-3 1.7-.8.4-1.7 1-2 1.3-1.2 1.7-13.9 6.9-18.2 7.5-8.2 1.2-17.1-4.6-21.6-14-3.7-7.8-4.5-11.1-5.1-21.3l-.6-10.2-2.9 5.7c-4.4 9-6.8 14.8-9 21.8-5.1 16.8-5.9 30.2-2.5 40 2.6 7.5 5.1 11.3 9.8 14.6 10.5 7.4 21.4 7.8 36.8 1.2 1.7-.7 3.6-1.3 4.2-1.3.6 0 1.1-.5 1.1-1 0-.6.6-1 1.3-1 3.6 0 25.1-16.3 42.7-32.4 1.9-1.7 6.7-5.9 10.5-9.1 3.9-3.3 7.5-6.5 8-7.1.6-.6 4.2-3.7 8-6.9 3.9-3.3 8.8-7.5 11-9.6 2.2-2 5.6-5 7.5-6.5 1.9-1.6 5.2-4.6 7.5-6.6 6.3-5.9 6.8-5.4 6.2 6.4-.3 5.7-1.3 15.9-2.2 22.8-2.8 22.6-2.9 25-1.3 25 .8 0 1.8-.4 2.4-.9.5-.5 2-1.1 3.3-1.3 2.5-.3 3.4-2 4.5-8.8.6-3.3 1.1-3.7 5.4-4.9 7.5-2.2 8.2-2.2 8.8-.3 2.2 6.4 3.6 8.4 5.7 7.7 1.2-.4 3.7-.9 5.5-1.2 3.8-.6 3.8-1.1 1.2-8.3-1.2-3-3-8.2-4.1-11.5-1.1-3.3-2.4-6.8-3-7.7-.5-1-.9-2.6-.9-3.5 0-1-.7-2.7-1.5-3.7-.8-1.1-1.5-3-1.5-4.2 0-1.3-.4-2.5-.9-2.8-.5-.3-1.1-1.8-1.4-3.3-.4-2.4-2.1-7.1-5.2-14.6-.6-1.3.6-3 4.6-7 5.4-5.2 13.5-12.4 18-16.1 6.5-5.3 20.8-18.6 20-18.6-.5 0-3.6 1.7-6.8 3.7-6.5 4.2-5.9 3.9-20.1 12.5-5.6 3.5-11.5 7.1-13 8-3.9 2.4-5.9 2.2-6.6-.7-.7-2.8-2.8-3.2-6.6-1-3.1 1.8-9.6 1.9-10.2.2-.2-.6-.2-5.4 0-10.5l.4-9.4 3.7-1.5c2-.9 5-1.9 6.6-2.2 2.7-.6 3-1.1 3.3-5l.3-4.3-6.3.4-6.3.3-.3-8c-.2-7 0-8.3 1.8-10.3 1.3-1.3 3.3-2.2 5.1-2.2 5.3 0 6.9-1.5 6.9-6.5 0-4.3-.1-4.5-2.7-4.4-1.6.1-4.1.6-5.8 1.1zm10.9 103c.9 1.2 1.6 3.3 1.6 4.6 0 1.3.6 3.5 1.4 5 .8 1.5 1.6 4.7 1.8 7.2.3 3.9 0 4.6-2.2 5.7-1.5.7-3.6 1-4.8.6-2.1-.5-2.2-.8-1.7-12.7.2-6.6.5-12.2.5-12.4.1-1 2.2.2 3.4 2z"/><path d="M182.5 47.9c-.5.5-2.3 1.1-3.9 1.3-2.5.3-3.2 1-5 6-1.2 3.1-2.5 6-2.9 6.4-.4.4-.7 1.5-.7 2.4 0 2.3-3.8 10-5 10-1.9 0-2.5-2.8-2.1-11.4l.3-8.9-4.1.6c-6.8.9-7.1 1.5-7.1 14.6 0 6.4-.5 22.6-1.1 36-1 24.6-.7 27.8 2.3 25.3.7-.5 2.7-1.2 4.3-1.4l3-.3.5-15.2c.4-12.7.8-15.5 2.2-17 1.1-1.1 2.1-1.4 2.6-.8 1.2 1.3 4.2 10.9 4.2 13.4 0 1.1.4 2.2.9 2.5.5.3 1.2 2.3 1.6 4.3 1.1 6 2.9 8.2 6.2 7.4 6.7-1.5 6.7-1.7 3.3-12.7-1.8-5.4-3.8-11.4-4.6-13.2-.8-1.8-1.4-4.1-1.4-5.2 0-1-.4-2.1-.9-2.5-2-1.1-2.4-9.2-.7-12.6.9-1.8 1.6-3.9 1.6-4.6 0-.8.6-2.7 1.4-4.1 4.6-8.5 8.3-23.5 5.1-20.3zM134 61.1l-4.5 1.7-.3 7.3c-.7 18.2-1.3 64.2-.8 65.4.4 1.2 1.2 1.2 5.1-.1 2.5-.9 4.5-1.9 4.6-2.2 0-.4.2-2.3.5-4.2.9-7.1 1.5-68.8.7-69.2-.4-.3-2.8.3-5.3 1.3zM116.5 66c-.3.5-2.1 1-3.9 1-5.3 0-5.6.9-5.6 17.7 0 13.7-.2 15.3-1.8 16.2-1 .5-2.3.7-2.9.3-1-.7-3-9-3.9-16.7-.3-2.2-.9-4.9-1.4-6-.5-1.1-1-2.9-1.2-4-.8-4.2-12.9-.9-13.5 3.7-.6 5-1.6 68.7-1 70.2.6 1.4 1.1 1.4 5.3-.2l4.6-1.8.4-16c.3-8.7.7-16.9 1-18.2.8-3.9 3.5-2.2 5.1 3.3.7 2.7 2 7.1 2.8 9.6.8 2.6 1.5 5.5 1.5 6.5 0 1.1.7 4 1.7 6.6 1.6 4.4 1.8 4.7 4.7 4.1 1.7-.3 4.1-.9 5.2-1.4 2.3-.8 2.3-.7 3.9-41.4.3-6.6.8-17.1 1.1-23.3.4-7.6.3-11.2-.4-11.2-.6 0-1.4.4-1.7 1zm751.2 23.7c-1.3 1.2-.7 9 .7 10.2.7.6 3.5 5.5 6.1 10.9 7.1 14.7 7.4 15.4 8.1 20 .5 3.1 1.1 4.2 2 3.8.8-.3 1.4.1 1.4 1 0 .8-.4 1.2-1 .9-1.4-.9-1.3 1.8.2 3.3 1.8 1.8-1.3 2.4-17 3.1-1.4.1-2.2.6-1.9 1.3.2.9 2.4 1.3 6 1.3 3 0 5.9.4 6.3.8.8.7-1.6 3.1-7.1 7-6.3 4.5 1 2.4 7.9-2.2 1.6-1.1 3.5-1.7 4.2-1.4 1.8.7 1.8 2.3 0 2.3-1.2 0-1.4 2.2-1.4 11.4 0 9.5.2 11.4 1.4 10.9 1.8-.7 3.1 2.6 1.4 3.7-.8.5-1 1.5-.5 2.6.5 1.3.9 1.5 1.2.6.3-.6.9-1.2 1.4-1.2.7 0 .8 2.6.3 7-.5 5.6-.4 7 .7 7.1.8.1.3.4-1.1.9-2.3.7-2.3.8-.6 1.5 1.1.5 2.6.3 3.7-.3 1-.6 4.7-1.6 8.3-2.2 3.6-.6 7.7-1.5 9.2-2 1.4-.6 3-.8 3.5-.4 1.6 1 .9 2.4-1.7 3.4-2.7 1.1-2.4 3 .5 3 3.1 0 4.5-2.6 3.3-5.7-.6-1.6-1.4-4.4-1.7-6.3-.3-1.9-1-4.4-1.4-5.5-2-5.1-3.4-9.2-3.8-11.8-.3-1.5-.9-3-1.4-3.3-.5-.3-.9-1.5-.9-2.7 0-1.2-1.3-4.5-2.8-7.2-4.4-7.8-4.8-8.6-8.3-16-1.8-3.9-3.5-7.2-3.8-7.5-.3-.3-1.4-2-2.5-3.8-1.5-2.8-1.7-4.5-1.1-9.6.4-4.6.2-7.2-.9-9.7-.8-1.9-2.1-5-3-7.1-.9-2-1.6-4-1.6-4.5 0-.6-1.6-2.6-3.5-4.6-3.3-3.4-7.1-4.7-8.8-3zm-582.2 13.5c-1.6.5-4.1 1.3-5.5 1.7-2.2.5-2.5 1.3-2.8 5.4-.3 4.4-.2 4.7 2.1 4.7 1.4 0 3 .6 3.6 1.4.6.7 1.6 7.3 2.1 14.5.5 7.3 1.1 13.5 1.4 13.9.2.4.7 5.5 1.1 11.2.4 5.8 1.1 10.9 1.6 11.5.6.6 2.5.4 5.2-.5l4.2-1.5-.1-5c0-2.8-.9-11.8-1.8-20-1-8.3-2.2-20-2.6-26-.5-6.1-.9-11.3-.9-11.8-.1-.9-3.9-.7-7.6.5zm-28 7.4c-2.2.7-5.1 1.6-6.5 1.8-5.3 1-5.8 2.3-5 11.6 2 21 3 30.9 4 36.5.5 3.3 1 8.6 1 11.7 0 3.2.4 5.8 1 5.8.5 0 3.1-.6 5.6-1.2l4.6-1.3-.8-6c-.4-3.3-.8-9.6-.8-14l-.1-8 3.2-.5c5.2-.8 7-2.9 6.5-7.9l-.4-4.3-3.7.7c-7.2 1.4-7.4 1.3-8.3-3-.5-2.2-.8-5.6-.6-7.5.2-2.8.8-3.6 2.8-4.1 8.5-1.9 10-3.6 8.4-9.7-.7-2.6-4.4-2.8-10.9-.6zm1218.7 105.7c-1.7 1.8-2.2 3.6-2.2 7.5 0 2.9-.4 6-.9 7-.6.9-1.7 4.3-2.7 7.4-1.8 6.1-9.9 16.3-15.2 19.2-14.7 7.9-21.9 9.9-34.2 9.3-15.1-.7-31.6-5.8-47-14.7-2.3-1.3-14.8-5-17-5-2.3 0-2.4.1-.9 3.4.6 1.3.8 3.7.5 5.2-.7 2.6-.8 2.7-6.5 2.1-5.6-.6-5.8-.5-8.1 2.5-2.1 2.8-2.1 3.4-.9 7 1 3.3 1 4.1-.2 5.3-1.2 1.2-2 1.2-5.8-.1-2.4-.8-5-1.3-5.8-1-1.7.7-1.8 10.4-.1 14 .9 2.2.8 2.9-.7 4.6-2.6 2.8-4.6 2.5-7.7-1.2l-2.6-3.2-2.1 2.4c-1.2 1.4-1.9 3.4-1.6 4.4.2 1.1-.3 3.5-1.1 5.4-.7 1.9-1.4 4.3-1.4 5.3s-.9 2.3-2.1 3c-1.8.9-2.5.7-4.8-1.5l-2.7-2.6-2.4 2c-2 1.8-2.2 2.6-1.7 7.6 1 10-3.4 14.4-9.1 9.1l-2.4-2.2-2.4 2.8c-1.8 2.1-2.4 4-2.4 7.5 0 2.6-.7 5.5-1.4 6.4-1.4 2-5.1 2.4-6.1.8-1.2-2-4.3-1-4.9 1.5-.5 2-1.3 2.5-3.7 2.5h-3.1l2.6 3.1c5.8 6.8.4 12.9-7.4 8.3l-2.7-1.7-7.3 7.7c-7.7 8.1-7.9 8.2-49.5 28.4-8.7 4.2-22.6 14.4-24.9 18.2-2.3 4-3.1 15.9-1 16.7 1.7.6 14.7-.9 25.4-3.1 4.1-.9 10.9-2 15-2.6 4.1-.6 8.3-1.5 9.2-2.1 1-.5 4-.9 6.7-.9 2.8 0 5.2-.4 5.6-.9.3-.6 2.7-1.3 5.3-1.6 2.6-.4 6.1-1.1 7.7-1.5 1.7-.5 5.5-1.6 8.6-2.4 3.1-.9 6.9-1.6 8.5-1.6 1.7 0 3.4-.4 4-.9 1.1-1 13.4-4.1 16.2-4.1 1.1 0 3.3-.7 4.8-1.5 1.6-.8 3.7-1.5 4.7-1.5.9 0 2.5-.4 3.5-.9.9-.5 5.5-2.1 10.2-3.5 4.7-1.5 10.3-3.4 12.5-4.3 2.2-.8 4.9-1.9 6-2.3 7-2.7 22.6-9.8 25.7-11.7 2.1-1.3 4.2-2.3 4.7-2.3s1.6-.6 2.3-1.3c.8-.6 2.4-1.8 3.7-2.5 3.9-2.2 27.3-13.9 31.6-15.7 2.2-.9 5.4-2.3 7-3 1.7-.7 5-2.1 7.5-3 2.5-1 5.9-2.3 7.5-3 1.7-.7 4.8-1.9 7-2.6 2.2-.7 4.4-1.7 4.9-2.1.6-.4 1.6-.8 2.4-.8.8 0 2.8-.6 4.5-1.4 1.8-.7 6.4-2.6 10.2-4.1 7.6-2.9 8-3.1 23.9-10.5 5.9-2.7 11.4-5 12-5 .7 0 2.1-.7 3.2-1.5 1-.8 2.9-1.5 4-1.5 1.2 0 2.7-.7 3.4-1.5.7-.8 1.8-1.5 2.4-1.5.7 0 3-.8 5.2-1.9 2.1-1 6.4-2.6 9.4-3.6s7.5-2.7 9.8-3.8c4.4-2 4.4-2 3.9-6.6-.5-5.2-3.7-13.9-9.1-25-2-4.1-3.6-8.4-3.6-9.5 0-3.7-4.7-10.9-14.1-21.9-2.1-2.4-4.5-7-5.8-10.9-2.4-7.2-6.7-12.8-9.8-12.8-1.1 0-2.9 1-4.1 2.3zm15.7 34.3c7.1 1.5 2.8 5.5-18.9 17.9-4.7 2.6-9.6 5.7-11 6.7-1.4 1.1-10.1 7.3-19.5 13.9-9.3 6.5-18.3 12.9-19.9 14.2-1.6 1.2-3.6 2.5-4.5 3-2.7 1.3-8.5 4.9-17.7 11.1-4.8 3.3-10.6 7-12.8 8.3-7.5 4.2-24.5 12.3-25.8 12.3-.8 0-1.9.5-2.6 1.2-.7.7-4.8 1.2-10.5 1.2-12.2.1-15.4-1.7-19.8-11.4-2.7-5.8-2.2-12.6 1.5-20.3 2.9-6.3 15.8-21.7 18.1-21.7.9 0 1.6 1.9 2.1 5.7 1.5 12.4 6.2 18.3 14.5 18.3 6.8 0 26.7-7.9 34.5-13.7 1.7-1.3 3.4-2.3 3.8-2.3 1 0 26.9-16 27.6-17 .3-.4 2.1-1.6 4-2.6 2-1.1 5.9-3.6 8.7-5.7 2.8-2 5.3-3.7 5.6-3.7.9 0 11.2-6.4 11.5-7.3.2-.4 1.2-.7 2.2-.7.9 0 2.3-.7 3-1.5.7-.8 1.9-1.5 2.7-1.5.8 0 3.5-1.1 6.1-2.5 4.7-2.5 10.6-3.2 17.1-1.9zm-572-24.3c-1.5 1.2-3.5 2.9-4.6 3.8-2.4 2-13.5 7.3-19.3 9.3-2.5.8-7 2.4-10 3.6-12.5 4.7-54.7 19.3-108.5 37.5-3.8 1.3-10.6 3.7-15 5.4-4.4 1.6-14.5 5.1-22.5 7.7-8 2.6-15.4 5.1-16.5 5.5-1.9.8-19.5 6.7-39.5 13.4-5.2 1.7-11.5 3.8-14 4.5-2.5.7-7 2.1-10.1 3.1-5.1 1.7-22.8 6.8-30.4 8.9-1.6.5-6.4 1.7-10.5 2.9-9.3 2.6-27.6 2.9-36 .6-4.1-1.1-8-1.3-15.3-.9l-9.9.7.7 3.6c2.4 13.5 10.1 17.4 28.4 14.6 5.8-.9 11.5-2 12.6-2.5 1.1-.4 5.8-1.7 10.5-2.8 4.7-1.2 11.4-3 15-4.2 3.6-1.1 9-2.8 12-3.6 3-.9 6.6-2 8-2.4 1.4-.4 5.2-1.5 8.5-2.4 19.4-5.4 106.7-34.4 116-38.6 1.1-.5 6.7-2.5 12.5-4.4 5.8-1.9 12.1-4 14-4.7 5.8-2 7.1-2.4 17.5-5.8 5.5-1.8 10.7-3.5 11.5-3.8.8-.3 5.8-2.1 11-4s14.9-5.2 21.5-7.5c6.6-2.2 12.4-4.4 12.9-4.9.6-.5 1.8-.9 2.8-.9 1 0 2.6-.4 3.6-.9 2.6-1.3 9-3.7 15.7-5.7 3.3-1 6.4-2.2 7-2.6.5-.4 1.7-.8 2.7-.8 3.5 0 15.1-6.3 18.9-10.3 3.4-3.5 3.9-4.5 3.9-8.8 0-5.5-1-6.1-5.1-2.6zm428 6.9c-1.6 1.8-3.2 4.2-3.5 5.3-.4 1.1-1.5 3.1-2.5 4.4-1.1 1.3-1.9 2.8-1.9 3.2 0 1.9 6.2.8 10-1.7 3.7-2.4 4.6-2.6 10.5-2 3.6.4 6.5.3 6.5-.2s-3.5-1.8-7.7-2.9c-8.1-2-8.2-2.1-6.7-7.1.9-3.2-1.2-2.8-4.7 1zm-686.9 10c-1.4 1.8-3.3 3.9-4.4 4.8-1 .8-3.8 3.3-6.3 5.4-2.4 2.2-5.6 4.6-7 5.3-2.9 1.5-8.1 1.7-10.2.4-1.1-.7-3 .4-7.1 4-3.1 2.7-6.5 4.9-7.6 4.9-1 0-4.6 1.4-7.9 3-3.3 1.6-6.3 3-6.7 3-.4 0-4.2 2.1-8.5 4.7-9.6 5.9-10.8 6.6-15.9 9.2-2.3 1.2-4.9 3-5.9 4.1-1.7 1.9-1.7 2 .3 2 1.1 0 3.3-.6 4.9-1.4 6-3 12.4-5.6 13.6-5.6.7 0 2.5-1.4 4-3 1.6-1.7 3.6-3 4.5-3 1 0 2.6-.7 3.6-1.5 1.1-.8 2.8-1.5 3.8-1.5s1.8-.5 1.8-1c0-.6 1.1-1 2.4-1 1.4 0 2.8-.5 3.1-1 .3-.6 1.7-1 3-1s2.7-.5 3-1c.4-.6 1.4-.8 2.3-.6 1 .3 3.3-.4 5.2-1.6 5.6-3.4 12-6.8 13.1-6.8 1 0 2.1-.9 14.7-13.3 5-5.1 9.2-9.5 9.2-9.9 0-1.9-2.7-.5-5 2.4zm-294.2 23.5c-1.9 2.2-3.1 6.2-5.4 17.3-2 9.6-4.4 15.9-6.8 17.9-.9.7-1.6 1.7-1.6 2.2 0 1.2 5.9 4.1 7 3.4.9-.6 16.1-.7 21.7-.2 4.5.4 5 1.3 2.2 3.6-1.3 1.1-2 2-1.5 2.1 1 0-13.9 10-14.9 10-.2 0-2.9 1.6-6 3.5-3 1.9-6.5 3.9-7.8 4.4-1.3.5-4.3 2.3-6.8 4-2.5 1.7-5.8 3.5-7.2 4-1.5.6-2.7 1.5-2.7 2s-2.1 2-4.7 3.3c-2.7 1.3-6.3 3.7-8.1 5.5-2 1.9-5.2 3.6-8.2 4.3-4 1-5 1.7-5.9 4.1-.7 2.1-1.8 3.1-4.1 3.6-1.8.3-3.4 1.2-3.7 1.9-.3.8-1.1 1.4-1.7 1.4-.7 0-2.3 1.2-3.5 2.6-1.6 1.9-2.9 2.5-4.8 2.1-1.7-.3-2.7.1-3.1 1.2-.6 1.7-4.2 5-5.4 5.1-.4 0-1.4-.7-2.2-1.6-2-1.9-4.2-.9-2.5 1.2 1.7 2-1.6 3-4.7 1.4-1.9-1.1-2.7-1.1-3.6-.2-1.8 1.8-7.8 1.5-7.8-.3 0-.8-.7-1.5-1.5-1.5s-1.5.5-1.5 1.1c0 .7-1.1.9-3 .5-3.2-.6-3.9.4-1.6 2.3.8.7 2.5.9 4.1.5 1.8-.4 3-.2 3.5.7.7 1 1.4 1 3.5.1 1.4-.7 3.7-1.2 5-1.2 3.5 0 2.1 2.8-1.9 3.8-2.1.6-3 1.5-2.9 2.6 0 1.1-.4 1.5-1.3 1.2-.7-.3-1.6-.1-1.9.4-.4.6-1.7.7-3.1.4-2-.5-2.4-.2-2.4 1.5 0 1.2-.6 2.1-1.5 2.1-1 0-1.5-1-1.5-2.6 0-2.1-.4-2.5-1.9-2.1-1.2.3-2.7-.3-3.6-1.3-.9-1-2.3-1.6-3-1.4-.7.3-1.5-.2-1.9-1.1-.3-.9-1-1.4-1.5-1-1.4.8-.2 3.5 1.5 3.5.8 0 1.7.7 2 1.5.4.8 1.7 1.5 3 1.5s2.4.4 2.4.8c0 1.3-2.3 3.2-3.8 3.2-.7 0-3 1.1-5 2.5-4.9 3.3-6.7 1.7-2.7-2.5 1.6-1.6 2.4-3 1.7-3-.6 0-1.3.4-1.7 1-.3.5-1.2.7-2 .3-1-.3-1.5.1-1.5 1.1 0 .9-1.2 2.2-2.7 2.8l-2.8 1.2 2.8.4c2.7.3 3.5 1.6 1.7 2.7-.5.3-1 .1-1-.6 0-1.1-3.8-.9-7 .4-.8.4-2.1.3-2.8-.2-1.1-.6-.7-1.6 1.8-4.1 1.7-1.7 2.8-3.5 2.4-3.9-.4-.3-.9 0-1.1.6-.3.7-1 1.3-1.7 1.3s-2.5 1.3-4.1 3c-2.8 2.9-6.5 4-6.5 2 0-.6-.9-1-2-1-2.1 0-2.7 1.5-1 2.5 1.8 1.1-.1 2.6-2.3 1.9-2-.6-2-.5-.8 1 2.2 2.6 7.8 4.6 13.3 4.6 5.2 0 17.6-2.7 19.3-4.1.5-.5 1.5-.9 2.3-.9 3.4 0 35-15.8 44.5-22.3 2.9-2 4.6-2.5 7-2 3.8.7 11.2 7.5 16.5 15.2 3.6 5.2 3.8 5.3 7.7 4.8 2.2-.2 10.8-3 19-6.2 8.3-3.2 17.9-6.8 21.5-8.1 3.6-1.2 8.8-3.1 11.5-4.2 5.6-2.2 19.9-7.6 26-9.9 2.2-.8 4.7-1.9 5.6-2.3.9-.5 3.4-1.3 5.6-1.9 2.2-.6 5.2-2.1 6.7-3.2 3-2.3 3-1.5-1.1-14.9-2.6-8.6-3-9.8-7.8-20.4-1.4-3.2-2.5-6.6-2.4-7.5.7-4.7-4.1-15-8-17-1-.6-2.2-2.2-2.5-3.6-.4-1.4-2.3-3.6-4.5-5-4.3-2.7-6.1-6.2-4-7.6.8-.5.9-.9.3-.9-.6 0-1.7-1.5-2.5-3.3-2.1-5.3-8.9-14.5-11.2-15.1-3.4-.9-4.3-.7-5.9 1.1zm19.5 74.7c3 4.7 3.5 9.7 1.2 11.6-1 .8-3.5 1-8.4.5-7-.7-9.9-2.4-11.4-6.7-.7-2 2.2-4.8 5-4.8 1.1 0 3-1.1 4.3-2.5 3.5-3.7 6-3.2 9.3 1.9zM230 283.8c-4.6 2-9.9 8.4-14 16.6-1.4 2.7-4.8 7.4-7.6 10.5-2.8 3.1-5.4 6.6-5.8 7.8-.4 1.3-1.1 2.3-1.5 2.3-.5 0-1.1 1.8-1.4 4-.4 2.9-1.8 5.4-5.5 9.6-2.8 3.1-5.3 6.7-5.7 8.1-1.5 6-4.8 10.9-9.5 14.3-2.8 1.9-5 4.1-5 4.7 0 .7-2.3 3.4-5.1 6-2.8 2.7-6.4 6.6-8 8.8-1.6 2.2-6.1 6.7-10.1 10.1-4.5 3.7-8.7 8.3-10.9 11.9-2 3.3-4.7 6.6-6 7.5-9.8 6-12 7.8-13.1 10.5-1.5 3.7-7.6 10.5-9.3 10.5-.7 0-2.7 1.6-4.5 3.6-3 3.4-3 3.7-1.4 5.5 2.5 2.8 4.6 3.1 8.4 1.1 3.9-1.9 24-21.3 24-23.1 0-.6.5-1.1 1-1.1.6 0 1-.6 1-1.3 0-1.4 2.7-4.2 5.8-6.1 6.6-3.9 12.2-8.6 24.2-20.4 7.4-7.2 16.1-15.7 19.3-18.8 3.1-3 5.7-6 5.7-6.5 0-.6 1.1-2.5 2.5-4.3 1.4-1.8 2.5-3.6 2.5-4.1 0-.4 4.6-5.4 10.3-11 5.7-5.7 11.2-11.9 12.2-13.9 1.1-2 2.3-3.6 2.7-3.6.5 0 .8-.6.8-1.4 0-.7 1.3-2.9 3-4.7 1.6-1.9 3-3.9 3-4.6 0-.6 2.3-3.6 5-6.7l5.1-5.5-4.6-.7c-6.4-.9-12 0-14.6 2.5-2.2 2-3.9 2.7-3.9 1.5 0-.9 5.8-6.4 6.8-6.4 2.1 0 6-4.1 6.5-7 .4-1.8 1.3-3 2.2-3 .8 0 1.5-.7 1.5-1.5s-.4-1.5-.9-1.5-1.5-.2-2.3-.4c-.7-.3-2-.2-2.8.2z"/><path d="M244 305.2c-2.2 1.1-5.6 3.9-7.6 6.2-3.6 4.1-14.4 20-14.4 21.1 0 .3 1.5.3 3.3 0 2.8-.5 3.5-.2 5.6 3 1.3 1.9 2.6 3.5 3 3.5.3 0 3.3 2.5 6.6 5.5s6.7 5.5 7.6 5.5c.9 0 1.9.7 2.3 1.5.3.8 1.2 1.5 2.1 1.5.8 0 1.5.4 1.5 1 0 .5 1.1 1 2.5 1s2.5.4 2.5 1c0 .5 1.6 2.4 3.5 4.2 2.9 2.6 3.3 3.3 2 4-2.1 1.3-1.9 2.8.5 2.8 1.9 0 11.9-4.7 13-6.1.3-.3 2.3-.9 4.5-1.3s4.7-1.4 5.6-2.2c1.7-1.6 7.9-5.1 14.1-8.1 2.1-1 3.8-2.3 3.8-2.8 0-.6 1.7-1.9 3.8-3 2-1 4.9-3 6.4-4.3 1.5-1.4 3.5-3 4.6-3.6 7-4 12.3-7.2 16-9.7 2.3-1.6 4.8-2.9 5.4-2.9.6 0 2.5-1.1 4.3-2.4 1.7-1.3 6.6-3.9 10.8-5.7 7.1-3.1 9.5-4.9 6.5-4.9-.7-.1-4.4-.5-8.2-1-6-.7-7.3-.6-9.5.9-2.6 1.8-6.6 3.8-13.3 6.5-6.1 2.4-26.8 4.2-32.9 2.8-2.8-.7-6.7-1.2-8.7-1.2-2 0-7.1-1-11.2-2.1s-8.8-2.4-10.5-2.8c-1.6-.5-5.7-2.4-9-4.2-9.9-5.6-11.8-6-16.5-3.7zm1265.6 51.4c-2.2.8-6.8 2.8-10.3 4.4-3.5 1.7-6.7 3-7.2 3s-2.2.6-3.8 1.4c-1.5.8-3.9 1.9-5.3 2.4-1.4.6-4.1 1.7-6 2.5-3.8 1.6-12.7 4.9-20 7.3-2.5.9-5.4 1.9-6.5 2.3-5.2 2-15.7 5.5-22.5 7.6-9.4 2.9-24.1 8.2-34.3 12.4-4.3 1.7-8.7 3.1-9.7 3.1s-2.2.4-2.5 1c-.3.5-1.3 1-2.2 1-.8 0-2.9.6-4.6 1.4-4.7 2.2-23.7 8.7-27.7 9.6-3.2.7-12.7 3.9-17.5 6-1.1.5-4.4 1.4-7.3 2-2.8.7-5.5 1.6-5.8 2.1-.3.5-1.6.9-2.9.9-1.3 0-2.8.6-3.2 1.2-.4.7-1.9 1.4-3.3 1.5-4.3.2-15 3.5-15 4.5 0 .6.9.7 2.3.3 1.2-.4 4.9-1.3 8.2-1.9 3.3-.7 6.7-1.5 7.5-1.8 2.7-1 12.3-3.6 18.5-4.8 5.8-1.2 34.3-10 39.5-12.2 1.4-.5 8.6-3 16-5.5 7.4-2.4 14.4-4.8 15.5-5.3 1.1-.5 4-1.5 6.5-2.3 2.5-.9 7-2.5 10-3.7 3-1.1 11.6-4.1 19-6.6s15.1-5.2 17-6c4.9-2.2 9.3-3.9 18.5-7.4 2-.8 8.7-3.3 11.5-4.4.8-.3 2.2-1 3-1.5 1.9-1.2 8.6-4.1 9.4-4.1.3 0 3.1-1.2 6.3-2.6 3.2-1.4 6.7-3 7.8-3.4 6.4-2.5 7.5-3.1 7.5-4.5 0-1.8-1.3-1.8-6.4.1zM175.8 382.1c-2.1 2.3-3.8 4.6-3.8 5.3-.1.6-2.1 2.7-4.6 4.6-2.5 1.9-5.9 4.7-7.4 6.2-1.6 1.6-3.1 2.8-3.5 2.8-.3 0-2.1 1.1-3.9 2.5-1.8 1.4-3.6 2.5-4.1 2.5-1.2 0-10.5 10.1-10.5 11.5 0 .7-2.3 3.5-5.1 6.4-5.7 5.6-5 7.1.8 1.8 2-1.7 5-4.4 6.7-6 1.7-1.5 3.5-2.6 4.1-2.4 2 .7 3.8 6.2 3.9 12l.1 5.9-5.5 4.9c-3 2.7-6.4 5.2-7.5 5.5-1.1.4-3.3 1.5-4.8 2.6-3.4 2.5-35.8 14-53.7 19.2-10.2 2.9-27.4 5.6-38.7 6-3.4.1-6.3.4-6.5.6-.2.3-1.2 1.8-2.4 3.5-3.1 4.6-5.2 10.6-5.9 17.2l-.7 6 4 .7c6.3 1 30.7-1.9 45.7-5.4 8.5-2.1 27.5-7.1 41-11 1.7-.5 7.7-2.2 13.5-3.8 9.6-2.7 20.4-6.1 25.5-8.1 3.8-1.5 9-3.3 11-3.8 1.1-.2 2.9-.8 4-1.3 1.1-.4 4-1.5 6.5-2.5 2.5-.9 5.9-2.3 7.5-3 1.7-.6 4.1-1.7 5.5-2.3 6.6-2.7 41.8-20.5 43.9-22.1l2.3-1.8-4.8-4.6c-4.9-4.7-21.8-14-33.9-18.7-3.3-1.3-6.4-2.7-6.9-3.2-.6-.4-1.7-.8-2.7-.8-1.9 0-13.7-8.7-15.3-11.2-1-1.7.4-5.7 3.2-8.6.6-.7 1.2-1.6 1.2-2 0-.4 1.6-2.4 3.5-4.4 1.9-2 3.5-3.9 3.5-4.2 0-1.5-1.8-.3-5.2 3.5zm669.7-2.6c-1.6.8-4.9 3.6-7.1 6.1-4.3 4.7-13.4 20.9-13.4 23.8 0 .8-1.8 4.3-3.9 7.6-2.2 3.4-4.2 7.4-4.6 9-.3 1.6-2.3 4.8-4.3 7.2-5.1 5.9-6.8 9.9-4.8 11 1.3.7 1.3 1.3.4 3.6-.7 1.5-1.8 3.4-2.5 4.3-.7.8-1.3 2.3-1.3 3.1 0 .9-.9 2.6-2 3.9l-1.9 2.4.6-4 .6-4-5.4 5.1c-5.2 5-7 6.8-18.4 18.4-3 3-5.9 6.7-6.4 8.2-.6 1.5-2.5 3.4-4.6 4.4-3.6 1.7-5.1 3.3-10.5 11-1.7 2.5-3.9 4.4-5.6 4.8-5.7 1.5-11.4 7.5-11.4 12 0 1.9 6.9 6.4 10.8 7.2 4 .8 5.4-1.2 4-5.8-1-3.2-.8-4.1 1.5-8.1 3-5 4.9-6.2 7.9-4.6 3.2 1.7 4.5.4 5.9-5.8 1.9-8.3 5.2-10.4 9.4-5.9 2.8 3 6.2 2.5 7.1-1 .4-1.4-.1-4.6-.9-7.2-1.5-4.4-1.5-4.8.3-6.6 1.8-1.9 2-1.9 3.9-.2 1.1 1 3 1.6 4.3 1.4 2.1-.3 2.3-.9 2.6-6.5.3-5.3.6-6.4 2.8-7.8 2.5-1.6 2.7-1.6 5.5 1.1 2.7 2.6 2.9 2.6 5.4 1 3.1-2 3.1-3.6.3-10.4-2-4.8-2-5.4-.6-6.8 1.3-1.3 1.9-1.4 3.7-.3 1.8 1.2 2.3 1.1 4.2-.8 2-1.9 2.1-2.5 1-6.7-1.5-6-1.4-6.4.9-7.6 1.7-.9 2.4-.6 4.3 1.5 1.9 2.3 2.6 2.5 5 1.6 3.1-1.2 3.7-5 1.2-7.1-2.2-1.9-1.8-4.7 1.2-8 1.7-2 3.6-3 5.4-3 1.5 0 4-1 5.4-2.3l2.7-2.2-2.1-2.6c-2-2.6-2-2.7-.2-4.8 2.2-2.5 7.5-2.8 12.8-.6 1.9.8 4.3 1.5 5.3 1.5.9 0 2.5.9 3.4 1.9 1 1.1 2.9 2.2 4.4 2.6 1.4.3 5.9 2.2 9.9 4.1 4 1.9 7.6 3.4 7.9 3.4.3 0 2 .6 3.7 1.4 6.6 2.9 18.4 6.3 29.5 8.5 12.1 2.5 23.7.7 36.7-5.4 10.3-4.9 10.9-4.9 14-2.1 3.5 3.2 2.7 4.6-5.5 8.8-3.6 1.9-10.5 5.6-15.5 8.3-4.9 2.6-18.7 9.7-30.5 15.7-11.8 6.1-21.9 11.4-22.4 11.9-.6.5-2.9.9-5.2.9-2.7 0-4.4.5-4.7 1.4-.7 1.7-10.8 6.6-13.6 6.6-1.1 0-2.3.4-2.6 1-.3.5-3.6 1-7.2 1-10.8 0-15.6-5-16.9-17.4-.4-3.7-1.1-6.9-1.6-7.2-2.8-1.7-13.6 10.1-18.3 20.1-7.7 16.2-1.8 32.3 13 35.6 10.7 2.4 24.9-2.4 53.7-18.2 7.8-4.3 14.5-7.3 16.3-7.3 2.5-.1 3-.5 2.7-2.3-.3-1.8.9-3 5.5-5.9 3.2-2 7.4-4.6 9.3-5.9 1.9-1.2 9.4-6 16.5-10.5 7.2-4.6 15.9-10.2 19.5-12.5 3.6-2.3 8.5-5.3 11-6.7 2.5-1.4 8.9-5.1 14.2-8.2 5.4-3.1 10.8-5.6 12-5.6 2.1 0 5.5 1.7 15.6 7.6 2.7 1.6 3.4 1.7 4.1.5 1.4-2.2-.6-6.8-7.5-17.1-6.2-9.4-11.4-19.6-11.4-22.5 0-2.5-4.9-9.7-9.7-14.3-5-5-7-5-12.3-.6-3.7 3.1-6.4 8.2-9.1 17.1-3.6 11.4-12.6 18.6-28.6 22.7-7 1.8-23 2.1-30 .5-21.6-4.9-23.8-6.3-34.7-22.4-1.9-2.8-4.9-5.9-6.7-6.9-1.9-1.1-5.9-4.6-8.9-7.8-6.2-6.5-9.7-7.8-14.5-5.3zm12.8 17.1c5.5 2.8 11 6.6 14.1 9.7 2.5 2.5.7 4.6-2.6 2.9-5.2-2.6-12.7-4.4-19-4.6-3.7-.1-7.1-.5-7.4-.9-1.1-1 5.9-9.6 7.9-9.7 1 0 4.1 1.2 7 2.6zm-429.8 10.5c-4.1 3.1-22.4 12.4-30.5 15.5-2.5.9-5.8 2.2-7.5 2.9-4.6 2-20.6 7.5-47 16.4-31.2 10.4-27.9 9.3-44.2 15.1-7.7 2.7-14.6 5-15.2 5-1 0-6.6 2.2-10.3 4.1-1 .5-2.4.9-3.3.9-.8 0-2.9.6-4.7 1.4-1.8.8-8.5 3.3-14.8 5.6-6.3 2.3-12.4 4.6-13.5 5.1-1.1.4-8.3 2.9-16 5.4-7.7 2.6-21 7.3-29.5 10.5-20 7.6-24.1 9-26.2 9-1 0-1.8.4-1.8.9s-1.9 1.4-4.2 2c-2.4.5-6.8 1.7-9.8 2.7-3 .9-6.6 1.8-8 2.1-1.4.2-3.4.8-4.5 1.3-1.8.8-9.8 3.2-17 5-17.8 4.7-27 7-32.5 8-3.6.7-7 1.6-7.5 2.1-1.6 1.2-26.6.4-31.5-1-4.1-1.2-8.4-2.9-13.5-5.1-1.1-.5-4-1.4-6.5-2.1-2.5-.6-5-1.5-5.7-2-.8-.7-1.3 0-1.9 2.3-1.7 7.1.8 13.6 6.6 17.4 3.9 2.6 4.8 2.7 16.3 2.8 14 .1 23.4-.8 32.7-3 3.6-.8 8.1-1.9 10-2.4 1.9-.4 5.8-1.4 8.5-2 2.8-.7 6.8-1.6 9-2 3.8-.8 18-4.4 29.5-7.6 3-.9 6.9-1.8 8.5-2.1 1.7-.3 3.5-.9 4-1.3.6-.4 2.6-1.1 4.5-1.5 1.9-.4 4.1-1.1 5-1.6.8-.4 7.8-2.8 15.5-5.3 14.2-4.6 21.1-7 36.5-12.6 4.7-1.8 9.9-3.6 11.7-4.1 1.8-.5 3.5-1.4 3.8-1.9.4-.6 1.4-1 2.4-1s4-1.1 6.7-2.5 5.5-2.5 6.2-2.5c.7 0 2-.4 3-.9 3.7-2 15.4-6.2 29.7-10.7 8.3-2.6 19.6-6.2 25.3-8 5.6-1.9 11.1-3.4 12-3.4 1 0 2.7-.7 3.8-1.5 1-.8 3.1-1.5 4.6-1.5 1.5 0 3-.5 3.3-1 .3-.6 1.5-1 2.7-1 1.1 0 3.2-.6 4.6-1.4 1.5-.7 4.3-1.9 6.2-2.6 1.9-.7 9.8-3.4 17.5-6.2 7.7-2.7 15.1-5.3 16.5-5.8 13.2-4.7 29.9-11 31.8-12 1-.4 4-1.5 6.7-2.4 8.3-2.5 13.9-4.7 15-5.7.5-.5 1.8-.9 3-.9 2.4 0 9.6-7.2 11.3-11.4 1.5-3.4.7-6.6-1.6-6.6-.9 0-3.5 1.4-5.7 3.1zm1128.8 76.8c-5.3 3.9-8.1 7.6-13.9 18.9-5.2 10.1-9.5 14.8-18.4 19.6-5.8 3.2-14.5 5.5-20.5 5.5-4.5.1-16.9-2.1-26-4.5-3.3-.8-7.3-1.9-9-2.3-6-1.6-15.7-5-19.5-7-.8-.4-2.7-3.3-4.2-6.3-2.2-4.5-3.7-6.2-7.5-8.4-2.6-1.5-5.6-3.4-6.5-4.2-.9-.7-3.4-2-5.5-2.7-3.6-1.3-4.6-2.2-5.6-5.6-1.8-5.9-18.8 8-21.6 17.6-1.1 3.6-1.1 5-.3 5.3 1.7.5 1.5 2.3-.5 3.8-2.7 2-3 1.8-3.8-2.9l-.8-4.2-1.3 5.4c-.8 3.7-2.3 6.5-4.8 9-1.9 2-4.7 6.3-6.1 9.6-1.5 3.2-4 7.4-5.6 9.2-1.6 1.9-3.5 4.9-4.3 6.7-.7 1.8-3 5.4-5 8-2 2.6-3.6 5.3-3.6 6.1 0 .7-5.5 6.9-12.3 13.9-6.8 6.9-13.8 15.2-15.7 18.4-5.1 8.6-9.8 14.1-13.5 15.6-4.1 1.7-7.9 6.8-9.3 12.3-1 4.2-.9 4.3 1.4 4.3 1.3 0 2.4.5 2.4 1 0 .7-1.3.9-3.2.5-2.9-.5-3.9 0-8.7 4.5-3 2.7-5.6 5-5.9 5-.2 0-2.7 2.1-5.5 4.6-7 6.3-16 11.4-34.2 19.5-20.5 9-31.7 15.2-35.4 19.5-4.8 5.4-6.2 12-6.4 30.1-.2 14.3 0 16.2 2 20.5 1.3 2.9 3.3 5.2 5.2 6.2 4.8 2.5 5.7 1.9 2.2-1.6-1.8-1.8-3.8-4.4-4.3-5.8-3.2-8.5-3.9-24.4-1.2-26.5 1-.7 6-1.7 11.3-2.4 5.3-.6 13.9-1.8 19.1-2.7 5.2-.9 12-1.9 15-2.4 3-.4 7.3-1.3 9.5-1.9 2.2-.5 9-2.2 15-3.6 6.1-1.3 13.7-3.2 17-4.1 3.3-.8 7.8-2 10-2.5 2.2-.6 5.4-1.5 7-2.1 1.7-.6 4.4-1.3 6-1.5 1.7-.3 3.5-.9 4-1.3.6-.5 2.7-1.1 4.8-1.5 2-.4 4-1.1 4.3-1.6.3-.5 1.6-.9 3-.9 1.3 0 3.2-.5 4.2-1 .9-.6 6.4-2.5 12.2-4.4 23.4-7.5 49.8-18.7 55.1-23.2.8-.8 1.9-1.4 2.4-1.4s4.3-1.6 8.4-3.6c15.6-7.5 23.9-11.2 32.5-14.5 2.8-1.1 7.1-2.9 9.6-4.1 5.7-2.6 15.5-6.3 24.5-9.3 3.9-1.3 8.1-2.8 9.5-3.3 1.4-.6 5.2-1.8 8.5-2.7 3.3-1 8-2.5 10.5-3.5s8.6-3 13.5-4.5c5-1.5 11.9-3.8 15.5-5.1 3.6-1.3 7.1-2.4 7.7-2.4.7 0 2.7-.6 4.5-1.4 4.2-1.7 9.6-3.4 30.1-9.1l5.7-1.6v-13c0-7.1-.4-12.9-.8-12.9-.5 0-1.7-2.7-2.7-6.1-1.7-5.7-2.2-6.3-8.6-10.6l-6.8-4.5-6.8 4.4c-3.7 2.5-7.5 4.8-8.3 5.2-.8.3-3.3 1.7-5.5 2.9-2.2 1.3-7.4 4.2-11.5 6.4-11.1 6.1-20.3 11.2-22 12.3-.8.5-5.8 3.4-11 6.5s-12.4 7.4-15.9 9.5c-3.4 2.2-6.5 4-6.8 4-.2 0-1.9 1.1-3.6 2.4-1.8 1.3-5.9 3.8-9.2 5.6-3.3 1.8-8 4.4-10.4 5.8-10.4 5.8-17.5 9.2-19.1 9.2-1 0-2.3.7-3 1.5-.7.8-2.1 1.5-3.1 1.5s-2 .4-2.3.9c-.6.9-6.5 3.1-13.6 5.1-2.5.7-6.1 1.8-8 2.5-1.9.7-7.1 1.6-11.5 2-7.4.6-8.5.5-13.6-1.9-6.4-3.1-10.2-8.1-12-16.2-2.5-11.2 4.1-25 18.2-37.7 9.6-8.7 10.7-8.2 14.2 6.6 2.5 10.3 6 13.7 14.1 13.7 5.5 0 22.2-5.5 24.9-8.2.9-.9 3.1-2 4.9-2.3 2.6-.6 17-7.2 23.1-10.5.9-.6 2.5-1.4 3.5-2 .9-.5 4-2.1 6.7-3.5 2.8-1.3 6.8-3.6 9-5 4.9-3 3.9-2.5 26.9-14.4 10.5-5.4 19.2-10.3 19.4-10.9.2-.6-.9-1.2-2.5-1.4-4.4-.5-3.7-3.9 1.7-7.9 2.4-1.9 5.7-5.2 7.2-7.4 3.3-4.9 8.8-16 8.8-17.8 0-.8 1.2-3.1 2.6-5.2 3.2-4.8 2.6-6.5-2.4-6.5-2.7 0-5.1.9-7.9 2.9zm-136.1 11.4c2.1.7 4.8 2.3 6.1 3.5 1.3 1.2 2.8 2.2 3.3 2.2 1.9 0 8.6 6.9 8.2 8.6-.7 3.8-3.2 3.8-11 0-4.1-2-8.2-3.6-9-3.6-.8 0-2.3-.7-3.4-1.5-1-.8-3.3-1.5-5.1-1.5-1.7 0-3.5-.5-3.9-1.1-.8-1.4 2.6-6 5.7-7.7 2.5-1.3 3-1.2 9.1 1.1z"/><path d="M1564.8 529c-2.3.7-8.9 3.9-19.8 9.6-1.4.7-6.8 3.3-12 5.8-5.2 2.6-14.4 7.2-20.5 10.4-11.2 6-15.2 8-20.5 10.7-2.8 1.4-7.7 3.9-11 5.6-.8.4-4 2.1-7 3.7-5.9 3.2-19.1 8.5-31.7 12.9-8.9 3-16.4 3.4-21 1-4.1-2.2-10.3-10.7-10.3-14.3 0-3.8-1-7.4-2.1-7.4-1.7 0-13.4 15.1-15.2 19.7-2.3 5.9-1.9 16.5.8 20.6 3.1 4.9 7.8 6.9 14.3 6.4 9.9-.9 26.3-5.1 33-8.6.9-.5 8.2-4.1 16.3-8 8-3.9 15.4-7.9 16.5-8.9 1-1 4.4-3 7.4-4.6 3-1.6 6.2-3.4 7-4 .8-.7 5.6-3.7 10.5-6.8 5-3 14.9-9.2 22.1-13.7 7.2-4.4 13.3-8.1 13.6-8.1.3 0 4.3-2.2 8.9-4.8 4.6-2.7 13.7-7.5 20.1-10.7 6.5-3.2 11.5-6.2 11.2-6.6-.6-1.1-6.9-1-10.6.1zm-1225 37.5c-3.5 3.2-4.1 3.4-8.5 2.9-2.6-.3-6.1-1.1-7.6-1.6-2.3-.9-3.1-.8-3.7.2-1.5 2.4.8 5.3 3.7 4.7 1.4-.3 3.8 0 5.3.7l2.7 1.1-2.8 3.8c-1.5 2.1-3 3.3-3.4 2.7-1.1-1.9-4.5-1.1-4.5 1 0 1.3.7 2 2 2 3.4 0 2.3 2-5.5 9.3-4.1 3.8-7.5 7.6-7.5 8.4 0 1.5-3.5 5.3-4.9 5.3-.5 0-1.1.6-1.4 1.4-.4.9-1.4 1.2-2.6.9-1.9-.5-4.7 2.7-3.5 4 .3.3.1 1.3-.4 2.4-.6 1-1.6 3.3-2.2 5-.7 1.8-1.6 3.3-2.1 3.3s-.9.7-.9 1.5.2 1.5.5 1.5c1.1 0 4.5-3.5 4.5-4.6 0-.7.7-1.4 1.5-1.8.8-.3 2.1-1.8 2.8-3.3 1.4-3.2 3.5-5.4 7.1-7.8 1.4-1 2.6-2.6 2.6-3.6s1.2-2.7 2.7-3.6c1.5-1 4.4-3.5 6.4-5.6 2-2 4-3.7 4.4-3.7 1.1 0 8.5 7.6 8.5 8.8 0 .7.9 1.2 2 1.2 1.3 0 2.4 1 3 2.4.6 1.8 2 2.7 4.5 3.2 3.7.7 4.5 1.8 1.9 2.8-2.8 1.1-.3 2.8 3.3 2.3 2.9-.5 3.5-.3 4.3 1.9.8 2.1 1.6 2.4 4.5 2.2 3.7-.2 6 1.6 4.7 3.7-.4.5-.8 3-.9 5.5-.3 4.2-.2 4.4 1.2 2.6.8-1.1 1.5-2.7 1.5-3.5.1-3.8 1.5-4.4 6.3-2.6l4.6 1.7 9.8-5.4c21.6-12.1 27-15.2 32.1-18.4 2.9-1.9 5.6-3.4 6.1-3.4.4 0 2.4-1.1 4.3-2.4 1.9-1.2 6.1-3.8 9.4-5.6 3.2-1.7 6.1-3.5 6.4-3.9.3-.4 4.2-2.9 8.7-5.7 4.5-2.7 8.3-5.1 8.3-5.4 0-.7-8.2-4-9.8-4-.7 0-3 1.3-5 2.9-4.6 3.5-14.5 7.6-23.5 9.6-19.3 4.3-42.7-1.1-65-14.9-10-6.2-11.4-6.4-15.9-2.1z"/><path d="M486 573.8c0 1.1-13.1 10.7-22 16.1-3 1.9-5.7 3.6-6 4-.6.7-3.2 2.4-7.5 4.7-1.6.9-5 3.4-7.5 5.4-2.5 2.1-6.1 4.6-8 5.6-1.9 1.1-5.6 3.4-8.2 5.2-2.6 1.7-4.9 3.2-5.3 3.2-.3 0-2.9 1.7-5.8 3.8-2.9 2.1-8.6 5.9-12.7 8.5-11.2 6.9-13 8.7-12.3 11.9.6 3.4 2.3 3.7 2.3.5 0-1.2.5-2.9 1-3.7.8-1.3 1.4-1.3 4.4.4 5.1 2.7 13.4 11.4 14.1 14.8.4 1.5 1.1 2.8 1.6 2.8s2.1 1.3 3.6 3c3.4 3.8 8.9 4.2 10.2.7.8-1.9 1-2 1.6-.5 1 2.5-.1 4.8-2.3 4.8-1.1 0-2.5.7-3.3 1.6-.8 1-2.1 1.3-3.7.9-1.3-.3-3-.1-3.8.6-1.2.9-1.4.5-1.4-2.6 0-2.9-.3-3.6-1.7-3.3-1.4.3-1.7 1.2-1.5 4.6.2 4.2.2 4.2-3.2 4.2-2.2 0-3.6.6-4 1.6-.6 1.5-1.8 1.6-8.9 1.1-4.5-.4-8.9-.2-9.7.3-1.3.8-1.3.9 0 1.4 5.2 1.6 11.7 2.6 16.9 2.6 5.4 0 6.1-.2 6.1-2 0-1.2.7-2 1.6-2 1.2 0 1.5.8 1.2 3.2-.7 7.5 7.7 17.3 12.8 14.9 1.9-.8 2.4-1.8 2.4-4.6 0-2.6-.4-3.5-1.6-3.5-1.1 0-1.5.6-1.1 2 .8 3-.9 3.4-4.2 1.1-1.6-1.2-3.4-2.1-3.9-2.1-2.4 0-2.2-2.4.4-5.1 2.2-2.3 2.4-2.9 1.1-2.9-1.7 0-3.5-4.5-2.3-5.7.3-.3 3.5-.6 7.1-.7 4.7-.1 6.9-.5 7.5-1.6.9-1.3 1.3-1.1 2.9.9 1.2 1.5 2.4 2.2 3.5 1.8 1.8-.7 2.1-2.3.6-3.2-.5-.3-1-1.7-1-3.1 0-1.7-.5-2.4-2-2.4-2.1 0-2.7-1.5-.9-2.5.6-.4 1.6.1 2.3 1.1.8 1 1.8 1.4 2.6.9.8-.5 1.9.1 3.1 1.6 1.5 1.9 1.9 2 1.9.7 0-.9 1.4-2.4 3.2-3.2 2.9-1.5 3.3-1.5 4.9 0 2.2 2 4.2.9 3.4-1.7-.5-1.5-.1-1.9 1.6-1.9 1.2 0 2.7.7 3.3 1.4 1.8 2.4 7.6-.5 7.6-3.9 0-1.6.6-2.5 1.5-2.5.8 0 1.5.6 1.5 1.4 0 1.5 2.8 4.2 3.6 3.4.2-.3.7-1.5.9-2.8.9-4.9 5.5-7 5.5-2.5 0 1.4-.4 2.5-.9 2.5s-1.3 1-1.6 2.2c-.4 1.3-3.2 4.7-6.2 7.6-4 3.9-5.9 5.1-7.4 4.7-1.6-.5-1.9-.1-1.9 2.4 0 3.1.8 3.8 2.6 2.2.5-.5 2.3-1.1 3.9-1.3 2.7-.3 3-.7 3.3-4.1.3-2.9.7-3.7 2.3-3.7 1 0 1.9-.4 1.9-.8 0-.5 1.3-2.3 2.9-4.1 1.7-1.9 3.1-4.3 3.3-5.5.2-1.6 1-2.1 3.2-2.1 3.5 0 5.7-2.8 3.8-4.7-1-1-1.4-1-2.1 0-.7 1.1-.9 1.1-1.3 0-.7-1.9.1-3.8 1.5-3.2.7.2 2.6 0 4.2-.5l3-.8-3.7-.8c-2.1-.4-3.8-1.2-3.8-1.8 0-.6-.9-.1-2 1.1-1.1 1.2-2 2.6-2 3.1 0 1.8-4.1 3.4-5.3 2.2-1.6-1.6-2.5-1.4-3.2.9-1 3.2-4.2 2.5-5-1.1-.8-3.6.4-4.9 4.7-4.9 1.5 0 3-.5 3.3-1 .3-.6 1.4-1 2.5-1 1 0 2-.6 2.3-1.4.7-1.8 7.5-3 9.1-1.6 1 .8 1.8.4 3-1.6 1.1-1.6 2.3-2.3 3.3-2 .8.4 2.8-.5 4.5-1.9 1.6-1.4 4-2.5 5.3-2.5 1.3 0 3.6-.5 5-1 3.9-1.5 4.8-.3 2.5 3.1-1.7 2.4-2.5 2.7-4 1.9-2.5-1.3-3-1.3-3 .3 0 1.8 3.2 4.7 5.3 4.7.9 0 2-.6 2.4-1.4 1-1.8 9.5-2.5 10.1-.8.2.8-.7 1.2-2.7 1.2-4.1 0-4.7 1.5-1.7 4.5 3.1 3.1 3.9 7.8 1.4 8.3-1.1.2-1.8-.3-1.8-1.3 0-.8-.7-2.7-1.6-4-1.5-2.3-1.7-2.4-4.5-.9-3.6 1.8-3.8 4.4-.5 4.4s8.8 5.1 8.8 8.1c0 4-1.9 9.6-4.1 12.5-1.4 1.8-2 3.6-1.7 5 .4 1.6-.1 2.8-2 4.3-1.5 1.2-3.1 2.1-3.5 2.1-1.4 0-1-3.8.4-4.3.6-.2.9-.8.5-1.2-.4-.4-2.6 1.1-5 3.4-4.8 4.6-10.2 7.5-12.3 6.7-1.1-.4-1.3-1.8-.9-5.8.5-4.9.4-5.2-1-3.4-.9 1.1-1.6 2.7-1.6 3.7 0 .9-1 1.9-2.1 2.2-1.8.5-2.1 1.1-1.6 3.6.6 3.1-.9 4.6-3.7 3.5-.8-.3-1.9.3-2.6 1.5-1.2 2.4-4.5 2.8-5.4.6-.9-2.5-4-1.7-5.8 1.5-1.8 3.1-4.5 4.2-3.4 1.4 1.7-4.6 1.5-6-1.3-9.2-3.1-3.5-5-2.8-3 1 1.6 3 2 11.8.4 11.8-.6 0-1.7-.6-2.4-1.3-1-1-1.7-.7-3.6 1.5-2.9 3.4-3.5 3.5-3.5.7 0-1.7-.4-2-2.2-1.5-1.7.4-2.9-.1-4.8-2.3-1.4-1.6-3.4-3.2-4.5-3.5-1.8-.5-2.3 0-3.1 3.4-1.3 4.6-1 5 2.6 5 2.8 0 5.8 2.4 4.3 3.3-.4.3-2.9.8-5.5 1.2-2.6.4-4.9 1.3-5.2 2.1-.9 2.3-2.4 1.6-4.2-2.1-.9-1.9-2-3.5-2.4-3.5-1.1 0-2 2.7-2 6.1 0 3.3-.7 3.7-2.5 1.2-1.1-1.4-1.3-1.3-1.9 1-.4 1.7-1.5 2.9-3.1 3.3-3.4.8-5.1 0-6.7-3.2-1.7-3.5-3.8-4.3-3.8-1.4 0 1.2-1.1 3.1-2.5 4.2s-2.5 2.6-2.5 3.4c0 1.9-1.6 1.8-2.4-.1-.3-.8-1.2-1.5-2.1-1.5-.8 0-1.5.7-1.5 1.5 0 2.3-4.1 1.9-4.7-.5-.5-2-2.9-2-7.8 0-1.1.4-2.8 1.1-3.8 1.4-2.5.8-1.7 4 1.1 4.4 1.6.3 2.2-.2 2.2-1.6 0-2 4.1-3.8 6-2.7 1.8 1.1 1.1 4.5-.8 4.5-1 0-2.7.7-3.8 1.5-1 .8-2.7 1.5-3.7 1.5-2.3 0-7.9-6.2-6.6-7.5 1.5-1.5 1-6.2-.7-6.9-.9-.4-1.9-.5-2.1-.3-.7.8-.5 13.6.2 14.8.9 1.4-1.2 2.9-4.2 2.9-1.3 0-2.3.4-2.3 1 0 .5-1.2 1.7-2.6 2.7-2 1.3-3 1.4-4.4.5-1.5-.9-1.9-.7-2.3.9-.7 2.8-3.7 2.4-3.7-.4 0-1.3-.3-2.7-.7-3-1.2-1.3-4.3 2.6-4.3 5.5 0 1.9-.4 2.8-1.2 2.5-.7-.2-1.3-1.6-1.3-3.2 0-1.5-.6-3-1.2-3.2-.8-.3-1.3.5-1.3 2.1 0 3-1.5 3.3-4.1 1-2.4-2.2-4-.9-3.3 2.5.5 2.6.3 3-2.4 3.6-1.7.3-3.3 1.3-3.6 2.2-.4.9-1.3 1.3-2.3.9-.9-.4-2.4.1-3.3.9-1.1 1-2 1.2-2.4.6-.4-.5-.2-1.2.3-1.5 1.1-.7-.9-6.6-2.2-6.6-.5 0-.6 1.8-.2 3.9.7 4.4-.6 6.1-3.2 4-1.3-1.1-1.7-1-2.9.6-.8 1-1.4 2.2-1.4 2.6 0 .3-1.5.9-3.2 1.2-1.8.4-4.3.9-5.5 1.3-1.9.5-2.3.3-2.3-1.8 0-3-1.7-4.8-4.7-4.8-3.3 0-3 3.5.5 6.5 2.3 2 2.5 2.4 1 3-1.1.4-3-.3-5.2-2-2.9-2.2-3.5-3.3-3.3-5.8.1-2.5-.3-3.4-2-4.2-1.3-.5-2.3-1.5-2.3-2.2 0-1.6-2.6-1.7-3.5-.2-.4.6.2 1.7 1.3 2.5 1.3.9 2.2 2.8 2.4 5.2.2 2.7.9 4 2.5 4.7 2.7 1.1 3.8 3.4 2.4 4.8-.7.7-1.7.5-2.9-.6-2.7-2.5-5.6-2.2-4.9.4.4 1.5-.1 2.2-1.9 2.9-1.4.6-2.8.9-3.2.8-.4-.1-2.5.4-4.6 1-2.2.6-4.3.9-4.8.6-1.4-.9.1-2.4 2.3-2.4 2.3 0 2.1-2.5-.2-2.5-.8 0-2-.4-2.7-.8-.7-.5-2.1-.5-3.2-.2-1.7.6-2 .2-2-2.8 0-2.1-.6-3.7-1.4-4-1.5-.6-3.2-6.4-2.2-7.4.3-.3 1.8-.6 3.3-.7 1.9-.1 2.9-.7 3.1-2 .4-1.6 0-1.8-2.8-1.2-1.8.3-4 .6-5 .6-.9 0-3 1-4.6 2.2l-2.8 2.3 2.8.5c2.5.4 3.2 1.3 4.7 6 1 3 1.9 6.2 1.9 7.1 0 .8 1.1 2.6 2.5 3.9 3.3 3.1 1.8 4.8-2.4 3-1.7-.7-3.1-1.7-3.1-2.2 0-.5-1-.8-2.2-.6-1.8.2-2.3.9-2.1 3 .1 2.3-.5 3.1-3.4 4.5-3.3 1.5-3.6 1.5-4.8 0-1.7-2.3-3-2.1-4.9.8-1.9 2.9-4.1 2.3-3.2-.8.7-2.7-2-5.7-5.1-5.7-2.7 0-3 2.4-.8 5.4.8 1.1 1.5 2.4 1.5 2.8 0 1.1-7-.1-8.6-1.4-.8-.5-1.4-.3-1.8.8-.4 1.1 0 1.8 1.4 2.1 1.1.3 2 .9 2 1.4 0 1.3-2.8 1.1-5.9-.6-2.6-1.3-2.9-1.3-4.1.9-.7 1.3-2.2 2.8-3.5 3.4-1.9.9-2.7.7-4.4-1.2-1.2-1.2-2.1-2.8-2.1-3.4 0-2.7-1.9-.9-2.2 2-.3 2.8-.7 3.3-3.3 3.6-1.6.2-3.4 1.1-4.1 1.9-.8 1.3-2.1 1.5-5.7 1-3.7-.5-4.8-.3-5.7 1.1-.8 1.2-1.3 1.3-1.6.4-.6-1.3-6.4-1.7-6.4-.5 0 .5-1.3 1.5-2.9 2.4-2 1.2-3.3 1.4-4.6.6-1.4-.7-2.1-.5-3.2.9-2.6 3.6-17.3 1.8-17.3-2.1 0-1.7 1.6-2 2.5-.5.9 1.4 2.2 1.2 2.9-.5 1-2.7-2-4.3-6.9-3.8-6 .7-6.1-1.9-.2-4.5 1.9-.8 2.7-1.8 2.3-2.7-.5-1.4 3-3.2 4.1-2.1.3.3 1.8-.3 3.3-1.4 1.5-1.1 3.5-1.7 4.7-1.4 2.7.7 3.9-1.3 1.3-2.1-1.6-.5-1.9-1.2-1.4-3.2.6-2.2.4-2.5-1-2-1 .4-1.9.7-2.1.7-.2 0-.1.8.2 1.8.2 1-.5 2.6-1.6 3.6-2.2 2-1.9 2.2-3.6-3-.7-2.3-3-1.1-2.8 1.5.2 1.6-.3 2.1-2.2 2.1-1.5 0-2.5-.6-2.5-1.4 0-2.1-2.4-2.6-6.5-1.5-2 .6-3.9.8-4.3.5-.3-.3-1.1-.1-1.8.5-2 1.7-5-3.8-5.8-10.7-.5-4.7-.3-6.4.8-7.3 1.6-1.3 1-5.1-.8-5.1s-6.1 4.9-8.5 9.5c-2.9 5.7-5.1 19.1-5.1 31.5 0 16.7 3.7 22 16 23.4 5.7.7 22.9-1.2 31-3.3 1.9-.5 7.1-1.7 11.5-2.6 4.4-.9 8.7-2 9.5-2.5.9-.4 4-1.1 7-1.4 3-.4 6.6-1.1 8-1.6 1.4-.4 8.8-2.2 16.5-4 7.7-1.7 15.4-3.6 17.1-4.1 1.7-.5 4.2-.9 5.5-.9 1.4 0 2.9-.4 3.5-.9.8-.9 18-5.5 24.9-6.8 1.7-.3 3.5-.9 4-1.3.8-.6 8-2.9 25-8.1 18.9-5.7 55.9-18.6 61.8-21.5 1.6-.8 3.6-1.4 4.5-1.4.9 0 2.6-.7 3.6-1.5 1.1-.8 3-1.5 4.2-1.5 1.3 0 2.6-.5 2.9-1 .3-.6 2.1-1 3.9-1 1.7 0 3.7-.5 4.2-1 .6-.6 2.3-1.3 3.9-1.6 1.5-.3 3.6-.9 4.6-1.4 1-.6 2.7-1 3.8-1 1.2 0 2.9-.4 3.9-.9.9-.5 8.5-3 16.7-5.6 13-4 30.6-9.9 37-12.5 1.1-.4 6.7-2.2 12.5-4 5.8-1.7 11.2-3.5 12-3.9.8-.4 4.2-1.6 7.5-2.6 3.3-.9 7.4-2.4 9.2-3.1 1.7-.8 3.7-1.4 4.5-1.4.8 0 1.8-.4 2.4-.8.5-.4 3.4-1.6 6.4-2.6 3-1.1 5.9-2.3 6.4-2.7.6-.5 1.6-.9 2.4-.9 4.4 0 20.7-9 25.3-14 4-4.2 5.9-11.3 4-14.7-.5-1-2.4-6.1-4.2-11.3-4.7-13.9-5.7-16.5-8.6-23.4-1.4-3.3-3.2-9.3-4-13.1-1.6-7.7-5.5-19.7-8.4-26.1-2.2-5-7.1-10.4-9.3-10.4-.9 0-3.9-1.1-6.6-2.5-5.4-2.8-13-4.3-13-2.7zm157.2 17.9c-1.6 5.3-2.1 9.5-2.2 18.8-.1 19.8 3.4 28.4 12.6 30.6 5.2 1.1 7.7 1.1 6.9-.1-.3-.6-1.5-1-2.6-1-3.6 0-7.8-4.1-9.9-9.8-1.6-4.3-2-7.5-1.9-14.1.2-4.7.6-9.3 1.1-10.2.4-1 .1-2.9-.8-4.9-1.6-3.2-1.6-10.3.1-14.3.4-.9.3-1.7-.2-1.7s-1.9 3-3.1 6.7zm407.7 49c-5.4 5.8-6.7 8.5-7.4 15.4-1.4 12.8-4 19.4-10.4 25.8-2.7 2.7-12 8.1-13.9 8.1-1 0-2.4.6-3.1 1.2-1.6 1.7-24.7 1.6-26.4-.1-.6-.6-2.3-1.1-3.9-1.1-1.5 0-4.4-.7-6.5-1.6-2.1-.9-4.9-2.1-6.3-2.6-6.7-2.6-16.2-9.7-19-14.4-2.5-4-8.8-9.2-14.5-11.9-2.2-1.1-5.7-3-7.7-4.3-2.1-1.2-4.6-2.2-5.7-2.2-4.6 0-14.7 13.7-13.6 18.4.4 1.5-.3 2.8-2.2 4.3-11.7 9.5-12.8 10.9-16.3 20-.6 1.7-2.3 4-3.7 5-3.1 2.2-8.3 7.5-8.3 8.5 0 1.6-14.8 17.3-19.7 21-3 2.2-5.7 4.7-6 5.6-.4.9-5.4 6.2-11.2 11.8-5.8 5.7-12.4 12.1-14.6 14.4-2.2 2.2-6.4 6.5-9.4 9.5-3.2 3.3-5.1 6-4.8 6.8.6 1.5-4.5 7-7.5 8-1.3.5-1.8 2-2 6.3-.3 5.3-.6 5.9-3.4 7.5-1.7.9-4 1.6-5 1.6-1-.1-2.3.9-3 2.3-3.5 6.7-18.5 19-23.3 19-.6 0-3 1.3-5.4 3-2.5 1.6-4.8 3-5.1 3-.4 0-4.9 2.7-10.2 6-5.2 3.3-9.7 6-9.9 6-.5 0-10.8 7-13 8.9-1.1.9-3.7 2.6-5.8 3.7-4.1 2-9.5 8.6-11.9 14.4-2.7 6.6-1.7 35.1 1.5 43.5 3.7 9.7 16.8 13.4 37.2 10.4 3.9-.5 10.2-1.4 14-1.8 3.9-.5 9.9-1.8 13.5-2.8 3.6-1.1 10.1-2.8 14.5-3.8 4.4-.9 8.9-2.1 10-2.5 1.9-.8 4.8-1.6 15-4.1 2.2-.6 4.4-1.4 5-2 .5-.5 1.7-.9 2.8-.9 1.6 0 14.2-3.8 18.7-5.7.8-.3 2-.7 2.5-.7.6-.1 2.4-.6 4-1.3 1.7-.6 6.4-2.1 10.5-3.3 4.1-1.2 9-2.8 10.8-3.6 1.8-.8 4.1-1.4 5.2-1.4 1 0 2.1-.4 2.4-.9.3-.5 1.8-1.1 3.3-1.4 1.6-.2 5.3-1.4 8.3-2.6 3-1.1 6.2-2.1 7.1-2.1.9 0 2.2-.7 2.9-1.5.7-.8 2.2-1.5 3.4-1.5 2.1 0 9.2-2.2 12.4-3.9.9-.5 4-1.6 6.7-2.4 7.8-2.4 11.8-3.9 14.7-5.3 1.4-.8 3.5-1.4 4.6-1.4 1.2 0 2.4-.5 2.7-1 .3-.6 1.3-1 2.2-1 .8 0 2.9-.6 4.6-1.4 5.5-2.3 13.2-5.3 19.7-7.5 12.7-4.3 15.6-5.4 16.5-6.2.5-.5 1.8-.9 3-.9s3-.7 4.1-1.5c1-.8 3.1-1.5 4.6-1.5 1.5 0 3-.5 3.3-1 .3-.6 1.3-1 2.2-1 .8 0 2.9-.6 4.6-1.3 1.8-.8 5.7-2.2 8.7-3.2 3-1 5.9-2.2 6.5-2.6.5-.5 1.8-.9 3-.9 1.1 0 2.9-.7 3.9-1.5 1.1-.8 3.2-1.5 4.7-1.5s3.1-.5 3.4-1c.3-.6 1.3-1 2.2-1 .8 0 2.9-.6 4.6-1.4 1.8-.8 7.2-2.6 12-4.2 4.8-1.5 9-3.1 9.3-3.6.3-.4 1.3-.8 2.2-.8 1 0 7.1-1.8 13.7-3.9 6.6-2.2 14.1-4.2 16.8-4.6 2.6-.4 5-1.1 5.3-1.6.3-.5 1.2-.9 2.1-.9 3.4 0 14.9-6.5 18.5-10.3 5.4-5.8 6.4-16 2.1-20.9-1.2-1.4-1.3-2.1-.4-3.2 1-1.1.8-1.8-.9-3.4-1.2-1.1-2.6-4.6-3.5-8.3-2.2-9.9-5.9-19.3-9.2-23-.7-.9-1.8-4.2-2.3-7.4-1.7-10.3-4.7-19.5-10.4-31.6-2-4.1-3.6-8-3.6-8.6 0-.5-1.1-2.7-2.5-4.8-1.4-2-4.2-6.8-6.2-10.6s-4-6.9-4.4-6.9c-.4 0-3.3-5.2-6.4-11.5-5.9-12-7.7-14-16.3-18.3-5.8-3-7.2-2.8-11.3 1.5zm68.9 126.1c.9.6.6 1.4-1.3 3.2-1.4 1.3-2.5 2.8-2.5 3.4 0 .6-1.4 1.9-3 2.8-3.2 1.8-3.9 4.2-1.5 5.5 1.9 1.1-7.7 5.8-10 4.9-2.7-1-.6-2.6 3.3-2.6 2.8 0 3.3-.3 2.4-1.2-1.3-1.3-17.9.5-21.4 2.3-3.1 1.7-4.3-.3-2.3-3.5 1-1.4 2.1-2.6 2.5-2.6.4 0 1.9-1.1 3.4-2.5s3.4-2.5 4.2-2.5c.7 0 1.4-.4 1.4-.9 0-1.3 12.7-5.4 14.5-4.8.7.3 1.9-.1 2.5-.9 1.3-1.5 5.7-1.9 7.8-.6z"/><path d="M369 675.7c0 1.6.5 3.4 1.1 4 1.2 1.2 1.5 6.5.5 8.2-1.3 2-2.2 1.2-3.2-2.7-.7-2.6-1.4-3.6-2.6-3.4-.9.1-1.9-.2-2.3-.8-.3-.5-1.2-1-2-1-2 0 .4 5.7 2.7 6.3 2.7.8 2.2 3.2-1.4 6.2-2.8 2.3-3.8 2.6-7.5 2.1-3.5-.5-4.5-.2-5.5 1.3-.7 1.1-1.9 1.6-3 1.3-1.4-.3-1.8.1-1.8 2.2 0 1.9.5 2.6 1.9 2.6 1.1 0 2.3-.5 2.6-1 .3-.6 1.5-1 2.6-1 1.5 0 1.9.5 1.4 1.9-.9 2.9 2.2 3.5 4 .7.9-1.3 1.4-2.9 1.3-3.6-.2-.6 1.8-1.9 4.4-2.7 2.9-1 4.8-2.2 5.1-3.4.3-1.1 1.2-1.9 2-1.9s2.8-.7 4.3-1.5c2.8-1.5 2.9-1.4 3.8 1 1.6 4 4 3.2 3.2-1l-.7-3.5h4.3c2.4.1 5.4.7 6.8 1.5 3.3 1.9 7.6 1.9 8.4 0 .5-1.5 4.2-1.5 7.9 0 1.2.5 1.7.2 1.7-.8 0-2.2-1.4-2.8-6.3-2.9-2.8 0-5.2-.8-7.3-2.3-2.3-1.7-3.4-2.1-4.2-1.3-.8.8-1.5.8-2.6-.1-.8-.7-3-1.1-4.8-.9-2.8.2-3.4.7-3.6 3.1-.2 1.5-1.3 3.2-2.4 3.8-2.1 1.2-2.2.6-.7-5 .2-.9-.6-1.7-2.1-2-1.5-.4-2.6-1.6-3-3.1-.8-3.5-3-3.7-3-.3zm-56.2 39.9c-1.6.8-2.8 1.8-2.8 2.2 0 1.1-8.6 5.2-9.3 4.5-.3-.3-.1-1.4.6-2.4.9-1.4.9-2.1-.1-3.1-1.1-1.1-1.5-1-2.3.4-.5.9-1.6 2.4-2.4 3.2-.8.8-1.5 2.2-1.5 3 0 .9-.8 1.6-2 1.6-1.6 0-2-.7-2-3.6 0-2.4-.4-3.4-1.2-3.1-.9.2-1.2 1.9-1 4.6.4 4.9-1.4 5.6-3.1 1.1-1.2-3.1-3.4-3.9-5.5-1.8-1.9 1.9-1.4 3.8 1.1 3.5 1.6-.1 2.2.3 2.2 1.8 0 1.1.6 3.1 1.4 4.4l1.4 2.5 1.5-3c.8-1.6 1.6-3 1.7-3.2.2-.2 1.5.4 2.9 1.3 1.8 1.2 2.6 2.6 2.6 4.5 0 2.1.7 3 3 4 1.7.7 3 1.6 3 2.1s.7.9 1.5.9c2.3 0 1.8-1.6-1-3.4-1.4-.9-2.5-2.5-2.5-3.6s-.7-2-1.5-2c-1 0-1.5-1.1-1.5-3.5 0-3.3.2-3.5 3.3-3.5 3.8.1 7.7 3 7.7 5.9 0 2.9 2.4 2.6 4-.4 1.5-2.9.7-4.2-2.9-4.7-3.4-.4-3.8-2.6-.7-3.4 1.4-.3 2.6-1.3 2.6-2.1 0-.9.8-1.3 2.3-1.1 1.8.2 2.3 1 2.5 4 .2 2.4.8 3.8 1.7 3.8 1.7 0 2.9-3.5 1.9-5.2-.5-.7-.8-2.6-.9-4.2 0-3.5-1.1-4-4.7-2zm-69.6 22.6c.3 2.8-.1 3.4-1.9 3.6-1.3.2-2.3.8-2.3 1.3s-1.6.9-3.5.9c-2.2 0-3.8.6-4.1 1.5-.4.9-1.9 1.5-3.9 1.5-4 0-5.5 1.7-2.6 2.8 1.9.7 2 .9.6 3.6l-1.5 2.8 5-.7c3.5-.5 5-.3 5 .5 0 .6 1.5 1.7 3.3 2.5 2.8 1.2 3.4 1.1 5-.2 1.6-1.5 2.4-7.3 1.1-8.6-.4-.3-2.1.5-3.9 1.8-4.3 3.3-5.2 3.2-6-1.1-.7-4.1.7-6.6 2.7-4.6 1.7 1.7 2.4 1.5 4.7-.9 1.6-1.7 2.3-1.9 4-1 1.2.7 2.1 2.2 2.1 3.6 0 1.3.4 2.6.9 2.9 1.6 1 2-4.8.5-7.6-.8-1.5-1.3-3.7-1.1-5 .1-1.7-.4-2.4-2.1-2.6-2-.3-2.2 0-2 3zm1239.3 65.3c-1.5 2.1-4.3 6.7-6.2 10.4-1.8 3.6-4.6 8.6-6.2 11.1-1.9 3-3 5.9-3 8.5-.1 5.2-9 23.1-14.7 29.4-2.3 2.6-6.2 5.7-8.6 7-2.8 1.4-5.1 3.6-6.4 5.9-2.8 5.4-11.6 14.8-17.9 19.4-4.6 3.3-6.1 5.1-9 11.3-2.5 5.4-4.3 7.8-6.4 9-1.7.8-4.1 3.1-5.4 5.1-4.7 6.8-15.7 18.2-20.9 21.6-2.9 1.9-10.7 6.3-17.2 9.7-21.4 11.2-37.1 20.9-40.4 25-3.4 4.1-5.2 9.8-5.2 16.3 0 6.4.1 6.8 2.5 7.4 2.9.7 6.2.2 12.5-1.9 2.5-.9 7.4-2.1 11-2.6 3.6-.6 9.2-1.7 12.5-2.5 10-2.4 33.8-8.6 36.5-9.5 3.6-1.2 18.4-5.7 25.5-7.7 9.7-2.7 29.9-9.3 31.7-10.4 1-.6 2.4-1 3.1-1 1.2 0 12.2-4.4 23.2-9.3 1.7-.8 19.4-9.5 39.5-19.5 33-16.4 40.7-20.1 52-24.9 1.9-.8 5-2.1 6.8-2.9 1.8-.8 3.9-1.4 4.7-1.4.7 0 2.6-.7 4.2-1.5 1.5-.8 6.7-2.9 11.5-4.7l8.8-3.3v-76.1l-7.4 3.6c-4.1 2-10.3 4.2-13.9 4.8-16.8 3.1-44-.5-54.2-7.2-1.4-.9-3.4-3.7-4.6-6.4-1.1-2.6-3.6-6-5.5-7.6-4.6-3.8-14.2-7.2-23-8.1l-7-.7-2.9 3.7zm41.2 24.7c4 1.8 7.1 3.7 7 4.3-.5 1.4-6 1.2-7.2-.3-1.5-1.9-7.7.6-7 2.9.6 1.8-1.3 6.9-2.6 6.9-.4 0-.9-.5-1.1-1.1-.3-.9-1.6-.9-5.3 0-4.1 1-5.3 1.8-6.5 4.4-.8 1.8-2.4 3.4-3.4 3.6-1.9.3-1.9.3-.1-2.5 1-1.6 2.9-4 4.2-5.4 1.4-1.3 3.3-4.2 4.3-6.5 2.3-5.1 6.4-9.5 8.7-9.5 1 0 5.1 1.5 9 3.2zm-91.9 99.3c.7 1.4 1.2 3.2 1.2 4 0 2-3.2 8.5-4.2 8.5-.4 0-3 1.5-5.6 3.3-5.4 3.8-26.4 13.7-29 13.7-1 0-2.3.5-2.9 1.1-.6.6-2.1.9-3.4.7-2-.2-1.1-1 4.6-4.1 3.9-2.2 8.2-5.1 9.8-6.5 1.5-1.4 4.2-3.1 6-3.7 1.9-.6 3.3-1.8 3.6-3 .2-1 1.5-3.1 3-4.6 1.4-1.4 4.3-4.7 6.4-7.3 4.6-5.5 8.6-6.3 10.5-2.1zM1414 956c0 .5-.3 1-.7 1-.5 0-4 2.9-8 6.3-8.3 7.2-19.6 12.7-31.4 15.2-9.4 1.9-12.1 1.9-19.2-.3-5-1.6-5.6-2-4.3-3.1.9-.8 4.4-1.9 7.8-2.6 7.3-1.5 10.3-2.4 21.3-6.1 11.9-3.9 23.4-8.1 28.5-10.2 3.2-1.4 6-1.5 6-.2zm-916.5-88.9c-2.7.4-12 1.1-20.5 1.4-21.1.8-40 2.1-40.8 2.9-.3.4-.1 1.6.6 2.6.7 1.1 1.2 2.9 1.2 4.1 0 1.7.3 1.9 1.4 1 1-.8 3.4-1 7.3-.6 5.4.6 5.9.5 6.8-1.7 1.9-4.5 12.5-3 12.5 1.8 0 2.9 1.4 3.8 3 1.9 1.5-1.8 9-2.1 9-.4 0 .8.5.7 1.6-.2 2.4-2 8.4-2.3 8.4-.4 0 .8.4 1.5 1 1.5.5 0 .7-.7.3-1.6-.5-1.4-.2-1.6 2.1-1 1.6.4 3.4.2 4.1-.4 1-.8 1.6-.7 2.3.6 1 1.9 3.2 1.1 3.2-1.2 0-.8.7-1.4 1.5-1.4s1.5-.3 1.5-.8c0-1.2 6.1-4.1 10.8-5.1 6.4-1.4 6.1-1.9-1.5-2.6-3.7-.3-7.7-.7-8.8-.9-1.1-.2-4.2 0-7 .5zm645.2 65.7c-1 1-1.7 2.7-1.7 3.7 0 2.7-3 11.8-6.7 20.2-2.8 6.5-11.8 14.3-22.2 19-5.1 2.4-6.7 2.6-18.6 2.5-10.4 0-14.4-.5-20-2.2-3.8-1.2-8.6-2.5-10.5-2.9-1.9-.4-8.2-3.1-14-5.9-17.8-8.6-28.5-10.5-32.8-5.9-2.5 2.6-2.9 4.7-.9 4.7.8 0 2.3 1 3.5 2.3 2 2.1 2.1 2.5.6 4.5-1.3 1.8-2.5 2.2-7.4 2.2-5.6 0-6 .2-7.6 3.1-1.1 2.3-1.3 3.4-.5 4.2 1.5 1.5 1.4 5.2-.3 6.6-.7.6-2.9 1-4.7.9l-3.4-.3-.3 7.7c-.3 9.1-1.5 10.7-6.2 8.8-2.7-1.1-3.3-1-5.1.6-1.8 1.6-2 2.6-1.4 7.9.5 5.2.3 6.3-1.3 7.8-1.8 1.6-2 1.6-4.5-.3-1.4-1.1-3.2-2-3.9-2-2.2 0-4 4.2-4.2 9.6l-.1 4.9-3.5-.3c-3-.2-3.8.2-5.1 2.5-.9 1.6-1.9 4.7-2.2 7l-.5 4.3h70.8c46.2 0 71.1-.3 71.5-1 .3-.6 1.4-1 2.4-1s6.9-2.6 13.2-5.8c6.4-3.1 12.9-6.2 14.5-6.8 7.2-2.8 24.3-9.8 28.9-11.9 2.8-1.2 7.3-3 10-4 2.8-1 5.4-2.2 5.9-2.7.6-.4 1.8-.8 2.7-.8.9 0 3-.7 4.5-1.5 1.6-.8 3.7-1.5 4.7-1.5 1.2 0 1.7-.8 1.7-2.7 0-3.8-7.2-23.3-9.7-26.3-.7-.9-1.7-3.8-2.3-6.5-.6-2.8-2.4-7-4-9.5-1.7-2.5-3.4-5.2-4-6-.5-.8-4.2-6.9-8.2-13.5-3.9-6.6-8.1-12.8-9.2-13.8-2.5-2.2-5.9-2.2-7.9.1zm452.2 12.2c-.9.5-6.3 2.5-12 4.4-5.7 1.8-11.7 3.9-13.4 4.6-5.5 2.3-7 2.8-9 3.4-1.1.2-3.8 1.1-6 2-9.4 3.5-21.4 7.8-27 9.7-3.3 1.1-6.9 2.4-8 2.9-1.1.5-4.5 1.6-7.5 2.6-3 .9-6.4 2-7.5 2.4-7.1 2.7-11.3 4-13.1 4-1.1 0-2.3.3-2.7.6-.7.7-21.6 8.1-26.2 9.4-1.6.4-4.1 1.2-5.5 1.8-1.4.5-4.5 1.5-7 2.2-2.5.7-5.6 1.7-7 2.2-3.3 1.4-27.8 8.8-31 9.5-1.4.2-3.4.8-4.5 1.3s-5.8 1.8-10.5 3.1c-4.7 1.2-10.7 2.9-13.5 3.6-16.1 4.5-30.6 5.6-43.5 3.3-4.6-.8-15.4-1.8-22.2-2-1 0-2.5-1.2-3.3-2.7-1.6-2.7-1.6-2.7-1-.3.4 1.4 1.1 5 1.6 8 1.2 6.8 3.5 10.8 7.8 13.7 5.1 3.4 10.3 3.7 22.1 1.3 5.8-1.2 12.3-2.6 14.5-3 7.8-1.5 17.1-3.8 24-5.9 7.5-2.3 10.5-3.1 20-5.6 15.3-3.9 112.6-36.2 114.2-37.9.4-.3 1.5-.6 2.5-.6s2.6-.4 3.6-.9c.9-.4 3.3-1.4 5.2-2 33.3-11.5 42.8-14.8 45-16 .9-.5 3-1.2 4.8-1.5 1.7-.4 3.4-1.2 3.7-1.7.4-.5 1.3-.9 2.2-.9.9 0 4.9-1.2 9-2.7l7.3-2.8v-5.2c0-4.8-.2-5.3-2.2-5.3-1.3 0-3 .5-3.9 1zM1 1032v15h10.5c9.2 0 10.5-.2 10.5-1.7 0-.9-.8-2.6-1.9-3.7-1-1.2-2.9-4.1-4.2-6.6-3.9-7.3-10.2-15.8-12.6-16.9L1 1017v15z"/></svg>