<svg version="1.0" xmlns="http://www.w3.org/2000/svg" width="1124" height="590.667" viewBox="0 0 843 443"><path d="M354.8 44.5c-6.2 2-15 10.1-18.3 16.9-1.6 3.3-2.9 8.3-3.6 14.1-1.6 13.1-1.5 12.8-6.4 16.4-2.5 1.8-10.4 8.8-17.6 15.7-15.5 14.7-29.9 24.7-48.9 33.8-22.4 10.6-38.5 15.6-58 18-7.6.9-19.9-1.3-26.8-4.8-13.1-6.6-21-15.8-29.9-34.7-5.8-12.3-4.8-11.6-22.7-14.8-6-1.1-11.5-2.6-12.2-3.3-.7-.7-2.4-4.2-3.9-7.8-3.6-8.6-5.9-11.6-10.5-14-6.1-3.1-12.4-2.6-20.6 1.4-11.8 6-19.2 14.6-22 25.9-3.1 11.8-.2 23.9 8.5 36.3l4.8 6.9-1.9 6C57.1 181.2 50.2 225.2 48 264c-2 35.6-.9 31-10.6 44.6-4.7 6.5-10.1 14.8-12.1 18.2-4.2 7.4-4.1 8.1.2 31.7 4.5 24.4 5.4 27.6 8.9 31.1 7.7 7.7 61.1 20.1 111.6 25.8 45.4 5.2 31.1 4.9 258.9 5.3 221 .4 300.7-.4 323.1-3.2 30.7-3.8 50.8-9.1 65.3-17.5 4.3-2.4 11.1-7.5 15.2-11.2 8.6-8 10.7-12.4 12.6-26.4 2.6-19.5-2.9-38.7-14.4-50.6-8-8.4-12.5-10.5-67.2-31-81.1-30.4-107.7-41.7-129.4-54.6-9.1-5.5-28.1-16.4-42.1-24.2-26.7-15-50-28.9-88.5-52.9l-23-14.3-6-10.1c-21.7-36.3-54.4-72.3-71.6-78.8-7.1-2.7-18-3.3-24.1-1.4zm19.3 26.6c4.8 3 26.5 24.7 25.6 25.5-.3.3-4.7-1.7-9.8-4.5-9.6-5.1-21-9.1-25.8-9.1-7 0-9.3-6.4-4.2-11.9 3.8-4.1 7.9-4.1 14.2 0zM90 96.6c2.1 5.5 1.2 9.5-3.4 15.3-2.4 3.1-6 8.2-7.9 11.3-2 3.1-4.1 5.9-4.6 6.3-3 1.8-6.8-12.2-5.1-18.6 1.8-6.4 13.2-16.7 18.8-16.9.7 0 1.7 1.2 2.2 2.6zm282.2 14.6c4 1.9 15 8.6 24.3 14.8 13.6 9.1 94.1 59.7 123.4 77.5 3.5 2.2 6.5 4.5 6.8 5.2.3.7-3.9 7-9.3 14-32.8 43-81.7 106.4-84.6 109.7l-3.4 3.9-21.9-2.2c-12.1-1.2-33.5-3.3-47.5-4.7-30.7-3-54.4-6-62.4-8-20.7-5.2-81.1-37.4-138.6-73.7-15.9-10.1-54.8-35.2-66.5-42.9l-11-7.3.3-4c.4-5.4 6.6-29.6 9.8-38.7 3.2-8.8 9.7-21.6 12.6-24.8 1.8-1.9 2.7-2.1 6.9-1.6 9.3 1.3 10.5 2.1 16 11.5 2.8 4.7 7.4 11.5 10.2 15 6.4 8.1 18.5 18.4 25.2 21.6 8.5 4 22.4 7.6 31.5 8.2 19.4 1.2 48.7-7.1 79.1-22.3 24.1-12 37-21 55.6-38.6 15.2-14.4 20.1-17.1 29.5-16.5 4.9.3 8.6 1.3 14 3.9zM83.3 219.6c1.8.9 11.8 7.2 22.2 13.9 46.8 30 95.4 59.5 123 74.6 5.2 2.8 7.4 4.5 6.2 4.7-1.6.3-21.2-2.1-50.2-6.3-5.5-.8-24.8-3.5-43-6-51.2-7-66.8-9.5-68.2-10.7-2.3-1.8-1-30.8 2.8-61.7 1.3-11.3 1.4-11.4 7.2-8.5zm464.3 0c4.9 2.1 26.8 14.3 45.8 25.6 8.2 4.9 18.3 10.6 22.5 12.7 19.5 9.8 60.6 26.2 133.1 53.1 23.7 8.8 36.5 14.2 39.2 16.7 3.1 2.8 6.5 10.2 7.7 16.8 1.3 6.7 1.5 16.2.4 16.8-1.3.8-70-1.2-100.3-2.8-41.2-2.2-82.8-5.1-120.5-8.5-65.6-5.9-123.4-11.6-124.1-12.3-.5-.5 15-21.2 50.1-66.7s40.9-52.9 41.6-53c.4 0 2.4.7 4.5 1.6zM84 309.5c6.3.9 27.9 3.8 48 6.6 57 7.8 131.9 17.9 166 22.3 71.1 9.2 263.7 27.8 353.5 34.1 29.6 2 72 4.3 94 5 9.9.3 21.4.8 25.5 1.1 6.7.6 7.2.7 5.5 2-5.7 4.2-32.9 10.7-52 12.4-29.6 2.7-503.9 3.6-541.5 1-35.3-2.4-76.6-8.9-113-17.6-8-1.9-15-3.8-15.7-4.2-1.1-.7-6-24.8-5.2-25.7.3-.2 2.9.2 5.9 1 20 5.3 79 15.9 111 20 36.7 4.6 89 8.5 115.8 8.5 14.8 0 18.8-1 21.2-5.4 1.2-2.4 1.2-3.1-.1-5.4-3-5.3-2.2-5.3-52.9-7.2-53.1-2.1-97.7-7.7-163.5-20.6-10.5-2.1-28.9-6.2-30.9-7-.9-.3-1.6-1-1.6-1.5 0-1.2 9.5-14.6 12.8-18.2 3-3.2 2.4-3.1 17.2-1.2z"/><path d="M374 175.5c0 1.3.9 6.3 2 11 3.8 16.5 2.2 28-5.2 35.6-7.6 7.8-21.1 11.8-40.3 11.9-15.5 0-21-1.1-106.5-21.9-69.9-16.9-101.2-24.2-101.8-23.7-.7.8 44.9 22.4 99.8 47.3 66.8 30.4 81.2 36.2 109.5 44 12.7 3.5 13.5 3.6 35.6 4 21.5.5 22.9.4 27.5-1.6 7.6-3.4 12-6.8 15.9-12.5 11.8-17.1 9.7-40.5-5.7-64.3-8.5-13-26.4-32.3-30-32.3-.4 0-.8 1.1-.8 2.5z"/></svg>