<?xml version="1.0" standalone="no"?>
<!DOCTYPE svg PUBLIC "-//W3C//DTD SVG 20010904//EN"
 "http://www.w3.org/TR/2001/REC-SVG-20010904/DTD/svg10.dtd">
<svg version="1.0" xmlns="http://www.w3.org/2000/svg"
 width="1603.000000pt" height="1050.000000pt" viewBox="0 0 1603.000000 1050.000000"
 preserveAspectRatio="xMidYMid meet">
<metadata>
Created by potrace 1.16, written by Peter Selinger 2001-2019
</metadata>
<g transform="translate(0.000000,1050.000000) scale(0.100000,-0.100000)"
fill="#000000" stroke="none">
<path d="M5525 10460 c-9 -28 -157 -116 -389 -232 -229 -114 -324 -174 -363
-231 -24 -34 -28 -52 -34 -140 -10 -167 0 -295 27 -338 29 -47 70 -79 100 -79
27 0 33 27 8 37 -40 15 -94 94 -94 137 0 29 20 33 80 16 41 -12 114 -22 152
-22 15 1 30 -3 33 -8 4 -6 54 -10 113 -10 103 0 204 13 362 47 41 9 103 21
137 27 34 6 65 14 69 19 4 4 23 7 41 7 19 0 43 5 54 11 11 6 41 14 67 18 56
10 139 31 167 42 33 13 178 56 213 64 17 4 32 11 32 16 0 5 12 9 28 9 15 0 36
7 46 15 11 8 30 15 43 15 13 0 31 4 41 9 29 14 86 33 117 39 17 2 39 11 50 18
11 8 32 14 47 14 15 0 30 5 33 10 3 6 18 10 33 10 15 1 38 7 52 15 14 8 37 14
52 15 15 0 30 5 33 10 3 6 21 10 39 10 19 0 39 7 46 15 7 8 24 15 39 15 14 0
35 7 45 15 11 8 32 15 47 15 15 0 31 5 34 10 3 6 19 10 34 10 15 0 36 7 47 15
10 8 29 15 41 15 12 0 32 4 45 9 13 4 50 16 83 26 33 9 72 23 87 31 14 8 38
14 52 14 14 0 26 5 26 10 0 6 15 10 33 10 17 0 41 7 51 15 11 8 34 15 52 15
18 0 35 4 38 9 3 5 26 12 51 15 24 4 47 11 50 17 4 5 14 9 24 9 10 0 32 7 47
15 16 8 39 15 51 15 12 0 25 5 28 10 3 6 18 10 32 10 14 0 39 6 56 14 36 15
177 60 220 70 15 4 27 11 27 16 0 7 -486 10 -1384 10 -1370 0 -1385 0 -1391
-20z"/>
<path d="M13300 10425 c-35 -29 -66 -58 -68 -64 -7 -20 37 -11 52 11 11 16 28
22 69 26 52 4 55 3 81 -30 14 -19 26 -40 26 -46 0 -6 21 -34 46 -63 50 -56 64
-85 64 -130 0 -16 6 -31 13 -33 6 -2 26 -8 44 -13 24 -8 36 -8 49 2 15 11 13
16 -24 54 -42 43 -92 123 -92 146 0 7 -20 42 -45 79 -25 36 -50 77 -55 91 -8
22 -15 25 -52 24 -37 0 -53 -8 -108 -54z"/>
<path d="M15187 10452 c-29 -17 -55 -69 -64 -129 -3 -21 -1 -33 6 -33 14 0 14
-53 0 -67 -14 -14 -15 -165 0 -205 25 -65 35 -79 68 -95 18 -8 33 -19 33 -24
0 -13 238 -11 280 2 19 5 55 14 80 19 42 8 125 28 210 50 19 5 64 16 100 24
36 8 77 18 93 22 l27 6 0 224 0 224 -402 -1 c-358 0 -406 -2 -431 -17z"/>
<path d="M13157 10300 c-51 -31 -59 -53 -64 -173 -5 -106 -7 -113 -32 -134
-22 -19 -24 -24 -11 -33 8 -5 32 -10 53 -10 l37 0 0 83 c1 52 6 91 15 107 8
14 14 47 15 73 0 27 5 57 11 68 16 31 7 38 -24 19z"/>
<path d="M13895 10138 c-91 -45 -224 -100 -515 -211 -36 -14 -114 -46 -175
-72 -60 -25 -137 -55 -170 -66 -63 -22 -67 -24 -211 -88 -177 -79 -311 -150
-408 -215 -54 -36 -106 -66 -115 -66 -9 0 -24 -9 -34 -20 -18 -21 -47 -27 -47
-9 0 6 9 13 20 16 11 3 20 11 20 17 0 33 -134 120 -269 176 -88 37 -114 53
-168 106 -35 34 -63 69 -63 78 0 23 -4 21 -64 -24 -29 -22 -57 -40 -61 -40
-17 0 -112 -66 -171 -119 -112 -99 -235 -150 -291 -120 -19 10 -28 11 -41 1
-9 -7 -24 -15 -32 -19 -8 -4 -17 -9 -20 -13 -3 -3 -46 -31 -95 -62 -50 -30
-124 -78 -165 -105 -41 -28 -97 -63 -125 -78 -27 -15 -81 -48 -118 -73 -78
-52 -107 -100 -107 -179 -1 -26 -7 -87 -14 -136 -13 -83 -8 -183 6 -130 6 21
10 21 104 17 55 -3 121 -10 147 -15 72 -14 194 -11 272 7 140 31 181 42 240
61 33 11 87 28 120 38 132 38 529 167 570 184 11 5 45 16 75 25 30 10 64 21
75 25 41 16 91 33 110 38 11 2 29 8 40 13 11 5 45 16 75 26 30 9 69 23 87 31
17 7 38 13 46 13 9 0 19 5 22 10 3 6 16 10 28 10 13 0 31 6 42 14 11 7 31 16
45 18 14 3 59 18 100 33 186 69 237 87 265 95 61 17 123 39 171 58 27 11 101
39 164 62 276 100 387 142 413 155 16 8 37 15 47 15 10 0 21 4 25 10 3 5 20
14 38 19 18 5 56 19 86 30 73 27 129 81 86 81 -8 0 -15 5 -15 11 0 5 -10 3
-22 -5 -12 -9 -29 -16 -36 -16 -7 0 -20 -7 -29 -15 -8 -9 -28 -19 -44 -22 -15
-3 -30 -11 -33 -19 -3 -8 -14 -14 -25 -14 -11 0 -23 -4 -26 -10 -3 -5 -19 -10
-34 -10 -15 0 -32 -5 -38 -11 -14 -14 -74 -28 -148 -35 -34 -3 -65 -11 -71
-19 -5 -7 -23 -17 -40 -21 -16 -4 -33 -10 -39 -14 -5 -4 -26 -10 -45 -13 -19
-3 -50 -9 -69 -13 -26 -5 -33 -4 -29 7 7 21 135 90 177 96 20 2 53 12 75 21
36 15 39 15 52 -3 17 -23 21 -19 43 41 20 57 44 68 59 27 10 -29 14 -25 26 30
4 15 13 30 21 32 8 3 23 8 33 11 9 4 50 8 91 10 40 1 78 7 84 13 6 6 10 32 8
58 -2 38 -8 55 -32 79 -39 40 -36 69 6 69 26 0 32 -5 42 -38 7 -21 24 -54 38
-75 14 -20 25 -43 25 -50 0 -10 7 -12 23 -8 86 25 102 15 37 -22 -29 -16 -40
-29 -40 -47 0 -43 34 -41 95 7 58 45 64 58 40 78 -8 7 -12 16 -9 21 5 9 -22
105 -36 124 -4 6 -10 21 -13 35 -10 42 -65 120 -84 119 -10 0 -45 -14 -78 -31z"/>
<path d="M2095 10098 c-89 -29 -122 -38 -137 -38 -10 0 -18 -8 -19 -17 0 -10
-2 -99 -4 -198 -2 -99 -7 -258 -10 -352 -6 -168 -5 -173 14 -173 26 0 51 -10
51 -20 0 -7 -78 -58 -201 -132 -39 -24 -580 -356 -599 -368 -8 -6 -22 -13 -30
-17 -8 -4 -17 -10 -20 -13 -12 -17 -139 -69 -182 -75 -82 -12 -171 46 -216
140 -37 78 -45 111 -51 213 l-6 102 -29 -57 c-44 -90 -68 -148 -90 -218 -51
-168 -59 -302 -25 -400 26 -75 51 -113 98 -146 105 -74 214 -78 368 -12 17 7
36 13 42 13 6 0 11 5 11 10 0 6 6 10 13 10 36 0 251 163 427 324 19 17 67 59
105 91 39 33 75 65 80 71 6 6 42 37 80 69 39 33 88 75 110 96 22 20 56 50 75
65 19 16 52 46 75 66 63 59 68 54 62 -64 -3 -57 -13 -159 -22 -228 -28 -226
-29 -250 -13 -250 8 0 18 4 24 9 5 5 20 11 33 13 25 3 34 20 45 88 6 33 11 37
54 49 75 22 82 22 88 3 22 -64 36 -84 57 -77 12 4 37 9 55 12 38 6 38 11 12
83 -12 30 -30 82 -41 115 -11 33 -24 68 -30 77 -5 10 -9 26 -9 35 0 10 -7 27
-15 37 -8 11 -15 30 -15 42 0 13 -4 25 -9 28 -5 3 -11 18 -14 33 -4 24 -21 71
-52 146 -6 13 6 30 46 70 54 52 135 124 180 161 65 53 208 186 200 186 -5 0
-36 -17 -68 -37 -65 -42 -59 -39 -201 -125 -56 -35 -115 -71 -130 -80 -39 -24
-59 -22 -66 7 -7 28 -28 32 -66 10 -31 -18 -96 -19 -102 -2 -2 6 -2 54 0 105
l4 94 37 15 c20 9 50 19 66 22 27 6 30 11 33 50 l3 43 -63 -4 -63 -3 -3 80
c-2 70 0 83 18 103 13 13 33 22 51 22 53 0 69 15 69 65 0 43 -1 45 -27 44 -16
-1 -41 -6 -58 -11z m109 -1030 c9 -12 16 -33 16 -46 0 -13 6 -35 14 -50 8 -15
16 -47 18 -72 3 -39 0 -46 -22 -57 -15 -7 -36 -10 -48 -6 -21 5 -22 8 -17 127
2 66 5 122 5 124 1 10 22 -2 34 -20z"/>
<path d="M1825 10021 c-5 -5 -23 -11 -39 -13 -25 -3 -32 -10 -50 -60 -12 -31
-25 -60 -29 -64 -4 -4 -7 -15 -7 -24 0 -23 -38 -100 -50 -100 -19 0 -25 28
-21 114 l3 89 -41 -6 c-68 -9 -71 -15 -71 -146 0 -64 -5 -226 -11 -360 -10
-246 -7 -278 23 -253 7 5 27 12 43 14 l30 3 5 152 c4 127 8 155 22 170 11 11
21 14 26 8 12 -13 42 -109 42 -134 0 -11 4 -22 9 -25 5 -3 12 -23 16 -43 11
-60 29 -82 62 -74 67 15 67 17 33 127 -18 54 -38 114 -46 132 -8 18 -14 41
-14 52 0 10 -4 21 -9 25 -20 11 -24 92 -7 126 9 18 16 39 16 46 0 8 6 27 14
41 46 85 83 235 51 203z"/>
<path d="M1340 9889 l-45 -17 -3 -73 c-7 -182 -13 -642 -8 -654 4 -12 12 -12
51 1 25 9 45 19 46 22 0 4 2 23 5 42 9 71 15 688 7 692 -4 3 -28 -3 -53 -13z"/>
<path d="M1165 9840 c-3 -5 -21 -10 -39 -10 -53 0 -56 -9 -56 -177 0 -137 -2
-153 -18 -162 -10 -5 -23 -7 -29 -3 -10 7 -30 90 -39 167 -3 22 -9 49 -14 60
-5 11 -10 29 -12 40 -8 42 -129 9 -135 -37 -6 -50 -16 -687 -10 -702 6 -14 11
-14 53 2 l46 18 4 160 c3 87 7 169 10 182 8 39 35 22 51 -33 7 -27 20 -71 28
-96 8 -26 15 -55 15 -65 0 -11 7 -40 17 -66 16 -44 18 -47 47 -41 17 3 41 9
52 14 23 8 23 7 39 414 3 66 8 171 11 233 4 76 3 112 -4 112 -6 0 -14 -4 -17
-10z"/>
<path d="M8677 9603 c-13 -12 -7 -90 7 -102 7 -6 35 -55 61 -109 71 -147 74
-154 81 -200 5 -31 11 -42 20 -38 8 3 14 -1 14 -10 0 -8 -4 -12 -10 -9 -14 9
-13 -18 2 -33 18 -18 -13 -24 -170 -31 -14 -1 -22 -6 -19 -13 2 -9 24 -13 60
-13 30 0 59 -4 63 -8 8 -7 -16 -31 -71 -70 -63 -45 10 -24 79 22 16 11 35 17
42 14 18 -7 18 -23 0 -23 -12 0 -14 -22 -14 -114 0 -95 2 -114 14 -109 18 7
31 -26 14 -37 -8 -5 -10 -15 -5 -26 5 -13 9 -15 12 -6 3 6 9 12 14 12 7 0 8
-26 3 -70 -5 -56 -4 -70 7 -71 8 -1 3 -4 -11 -9 -23 -7 -23 -8 -6 -15 11 -5
26 -3 37 3 10 6 47 16 83 22 36 6 77 15 92 20 14 6 30 8 35 4 16 -10 9 -24
-17 -34 -27 -11 -24 -30 5 -30 31 0 45 26 33 57 -6 16 -14 44 -17 63 -3 19
-10 44 -14 55 -20 51 -34 92 -38 118 -3 15 -9 30 -14 33 -5 3 -9 15 -9 27 0
12 -13 45 -28 72 -44 78 -48 86 -83 160 -18 39 -35 72 -38 75 -3 3 -14 20 -25
38 -15 28 -17 45 -11 96 4 46 2 72 -9 97 -8 19 -21 50 -30 71 -9 20 -16 40
-16 45 0 6 -16 26 -35 46 -33 34 -71 47 -88 30z"/>
<path d="M2855 9468 c-16 -5 -41 -13 -55 -17 -22 -5 -25 -13 -28 -54 -3 -44
-2 -47 21 -47 14 0 30 -6 36 -14 6 -7 16 -73 21 -145 5 -73 11 -135 14 -139 2
-4 7 -55 11 -112 4 -58 11 -109 16 -115 6 -6 25 -4 52 5 l42 15 -1 50 c0 28
-9 118 -18 200 -10 83 -22 200 -26 260 -5 61 -9 113 -9 118 -1 9 -39 7 -76 -5z"/>
<path d="M2575 9394 c-22 -7 -51 -16 -65 -18 -53 -10 -58 -23 -50 -116 20
-210 30 -309 40 -365 5 -33 10 -86 10 -117 0 -32 4 -58 10 -58 5 0 31 6 56 12
l46 13 -8 60 c-4 33 -8 96 -8 140 l-1 80 32 5 c52 8 70 29 65 79 l-4 43 -37
-7 c-72 -14 -74 -13 -83 30 -5 22 -8 56 -6 75 2 28 8 36 28 41 85 19 100 36
84 97 -7 26 -44 28 -109 6z"/>
<path d="M14762 8337 c-17 -18 -22 -36 -22 -75 0 -29 -4 -60 -9 -70 -6 -9 -17
-43 -27 -74 -18 -61 -99 -163 -152 -192 -147 -79 -219 -99 -342 -93 -151 7
-316 58 -470 147 -23 13 -148 50 -170 50 -23 0 -24 -1 -9 -34 6 -13 8 -37 5
-52 -7 -26 -8 -27 -65 -21 -56 6 -58 5 -81 -25 -21 -28 -21 -34 -9 -70 10 -33
10 -41 -2 -53 -12 -12 -20 -12 -58 1 -24 8 -50 13 -58 10 -17 -7 -18 -104 -1
-140 9 -22 8 -29 -7 -46 -26 -28 -46 -25 -77 12 l-26 32 -21 -24 c-12 -14 -19
-34 -16 -44 2 -11 -3 -35 -11 -54 -7 -19 -14 -43 -14 -53 0 -10 -9 -23 -21
-30 -18 -9 -25 -7 -48 15 l-27 26 -24 -20 c-20 -18 -22 -26 -17 -76 10 -100
-34 -144 -91 -91 l-24 22 -24 -28 c-18 -21 -24 -40 -24 -75 0 -26 -7 -55 -14
-64 -14 -20 -51 -24 -61 -8 -12 20 -43 10 -49 -15 -5 -20 -13 -25 -37 -25
l-31 0 26 -31 c58 -68 4 -129 -74 -83 l-27 17 -73 -77 c-77 -81 -79 -82 -495
-284 -87 -42 -226 -144 -249 -182 -23 -40 -31 -159 -10 -167 17 -6 147 9 254
31 41 9 109 20 150 26 41 6 83 15 92 21 10 5 40 9 67 9 28 0 52 4 56 9 3 6 27
13 53 16 26 4 61 11 77 15 17 5 55 16 86 24 31 9 69 16 85 16 17 0 34 4 40 9
11 10 134 41 162 41 11 0 33 7 48 15 16 8 37 15 47 15 9 0 25 4 35 9 9 5 55
21 102 35 47 15 103 34 125 43 22 8 49 19 60 23 70 27 226 98 257 117 21 13
42 23 47 23 5 0 16 6 23 13 8 6 24 18 37 25 39 22 273 139 316 157 22 9 54 23
70 30 17 7 50 21 75 30 25 10 59 23 75 30 17 7 48 19 70 26 22 7 44 17 49 21
6 4 16 8 24 8 8 0 28 6 45 14 18 7 64 26 102 41 76 29 80 31 239 105 59 27
114 50 120 50 7 0 21 7 32 15 10 8 29 15 40 15 12 0 27 7 34 15 7 8 18 15 24
15 7 0 30 8 52 19 21 10 64 26 94 36 30 10 75 27 98 38 44 20 44 20 39 66 -5
52 -37 139 -91 250 -20 41 -36 84 -36 95 0 37 -47 109 -141 219 -21 24 -45 70
-58 109 -24 72 -67 128 -98 128 -11 0 -29 -10 -41 -23z m157 -343 c71 -15 28
-55 -189 -179 -47 -26 -96 -57 -110 -67 -14 -11 -101 -73 -195 -139 -93 -65
-183 -129 -199 -142 -16 -12 -36 -25 -45 -30 -27 -13 -85 -49 -177 -111 -48
-33 -106 -70 -128 -83 -75 -42 -245 -123 -258 -123 -8 0 -19 -5 -26 -12 -7 -7
-48 -12 -105 -12 -122 -1 -154 17 -198 114 -27 58 -22 126 15 203 29 63 158
217 181 217 9 0 16 -19 21 -57 15 -124 62 -183 145 -183 68 0 267 79 345 137
17 13 34 23 38 23 10 0 269 160 276 170 3 4 21 16 40 26 20 11 59 36 87 57 28
20 53 37 56 37 9 0 112 64 115 73 2 4 12 7 22 7 9 0 23 7 30 15 7 8 19 15 27
15 8 0 35 11 61 25 47 25 106 32 171 19z"/>
<path d="M9199 8237 c-15 -12 -35 -29 -46 -38 -24 -20 -135 -73 -193 -93 -25
-8 -70 -24 -100 -36 -125 -47 -547 -193 -1085 -375 -38 -13 -106 -37 -150 -54
-44 -16 -145 -51 -225 -77 -80 -26 -154 -51 -165 -55 -19 -8 -195 -67 -395
-134 -52 -17 -115 -38 -140 -45 -25 -7 -70 -21 -101 -31 -51 -17 -228 -68
-304 -89 -16 -5 -64 -17 -105 -29 -93 -26 -276 -29 -360 -6 -41 11 -80 13
-153 9 l-99 -7 7 -36 c24 -135 101 -174 284 -146 58 9 115 20 126 25 11 4 58
17 105 28 47 12 114 30 150 42 36 11 90 28 120 36 30 9 66 20 80 24 14 4 52
15 85 24 194 54 1067 344 1160 386 11 5 67 25 125 44 58 19 121 40 140 47 58
20 71 24 175 58 55 18 107 35 115 38 8 3 58 21 110 40 52 19 149 52 215 75 66
22 124 44 129 49 6 5 18 9 28 9 10 0 26 4 36 9 26 13 90 37 157 57 33 10 64
22 70 26 5 4 17 8 27 8 35 0 151 63 189 103 34 35 39 45 39 88 0 55 -10 61
-51 26z"/>
<path d="M13479 8168 c-16 -18 -32 -42 -35 -53 -4 -11 -15 -31 -25 -44 -11
-13 -19 -28 -19 -32 0 -19 62 -8 100 17 37 24 46 26 105 20 36 -4 65 -3 65 2
0 5 -35 18 -77 29 -81 20 -82 21 -67 71 9 32 -12 28 -47 -10z"/>
<path d="M6610 8068 c-14 -18 -33 -39 -44 -48 -10 -8 -38 -33 -63 -54 -24 -22
-56 -46 -70 -53 -29 -15 -81 -17 -102 -4 -11 7 -30 -4 -71 -40 -31 -27 -65
-49 -76 -49 -10 0 -46 -14 -79 -30 -33 -16 -63 -30 -67 -30 -4 0 -42 -21 -85
-47 -96 -59 -108 -66 -159 -92 -23 -12 -49 -30 -59 -41 -17 -19 -17 -20 3 -20
11 0 33 6 49 14 60 30 124 56 136 56 7 0 25 14 40 30 16 17 36 30 45 30 10 0
26 7 36 15 11 8 28 15 38 15 10 0 18 5 18 10 0 6 11 10 24 10 14 0 28 5 31 10
3 6 17 10 30 10 13 0 27 5 30 10 4 6 14 8 23 6 10 -3 33 4 52 16 56 34 120 68
131 68 10 0 21 9 147 133 50 51 92 95 92 99 0 19 -27 5 -50 -24z"/>
<path d="M3668 7833 c-19 -22 -31 -62 -54 -173 -20 -96 -44 -159 -68 -179 -9
-7 -16 -17 -16 -22 0 -12 59 -41 70 -34 9 6 161 7 217 2 45 -4 50 -13 22 -36
-13 -11 -20 -20 -15 -21 10 0 -139 -100 -149 -100 -2 0 -29 -16 -60 -35 -30
-19 -65 -39 -78 -44 -13 -5 -43 -23 -68 -40 -25 -17 -58 -35 -72 -40 -15 -6
-27 -15 -27 -20 0 -5 -21 -20 -47 -33 -27 -13 -63 -37 -81 -55 -20 -19 -52
-36 -82 -43 -40 -10 -50 -17 -59 -41 -7 -21 -18 -31 -41 -36 -18 -3 -34 -12
-37 -19 -3 -8 -11 -14 -17 -14 -7 0 -23 -12 -35 -26 -16 -19 -29 -25 -48 -21
-17 3 -27 -1 -31 -12 -6 -17 -42 -50 -54 -51 -4 0 -14 7 -22 16 -20 19 -42 9
-25 -12 17 -20 -16 -30 -47 -14 -19 11 -27 11 -36 2 -18 -18 -78 -15 -78 3 0
8 -7 15 -15 15 -8 0 -15 -5 -15 -11 0 -7 -11 -9 -30 -5 -32 6 -39 -4 -16 -23
8 -7 25 -9 41 -5 18 4 30 2 35 -7 7 -10 14 -10 35 -1 14 7 37 12 50 12 35 0
21 -28 -19 -38 -21 -6 -30 -15 -29 -26 0 -11 -4 -15 -13 -12 -7 3 -16 1 -19
-4 -4 -6 -17 -7 -31 -4 -20 5 -24 2 -24 -15 0 -12 -6 -21 -15 -21 -10 0 -15
10 -15 26 0 21 -4 25 -19 21 -12 -3 -27 3 -36 13 -9 10 -23 16 -30 14 -7 -3
-15 2 -19 11 -3 9 -10 14 -15 10 -14 -8 -2 -35 15 -35 8 0 17 -7 20 -15 4 -8
17 -15 30 -15 13 0 24 -4 24 -8 0 -13 -23 -32 -38 -32 -7 0 -30 -11 -50 -25
-49 -33 -67 -17 -27 25 16 16 24 30 17 30 -6 0 -13 -4 -17 -10 -3 -5 -12 -7
-20 -3 -10 3 -15 -1 -15 -11 0 -9 -12 -22 -27 -28 l-28 -12 28 -4 c27 -3 35
-16 17 -27 -5 -3 -10 -1 -10 6 0 11 -38 9 -70 -4 -8 -4 -21 -3 -28 2 -11 6 -7
16 18 41 17 17 28 35 24 39 -4 3 -9 0 -11 -6 -3 -7 -10 -13 -17 -13 -7 0 -25
-13 -41 -30 -28 -29 -65 -40 -65 -20 0 6 -9 10 -20 10 -21 0 -27 -15 -10 -25
18 -11 -1 -26 -23 -19 -20 6 -20 5 -8 -10 22 -26 78 -46 133 -46 52 0 176 27
193 41 5 5 15 9 23 9 34 0 350 158 445 223 29 20 46 25 70 20 38 -7 112 -75
165 -152 36 -52 38 -53 77 -48 22 2 108 30 190 62 83 32 179 68 215 81 36 12
88 31 115 42 56 22 199 76 260 99 22 8 47 19 56 23 9 5 34 13 56 19 22 6 52
21 67 32 30 23 30 15 -11 149 -26 86 -30 98 -78 204 -14 32 -25 66 -24 75 7
47 -41 150 -80 170 -10 6 -22 22 -25 36 -4 14 -23 36 -45 50 -43 27 -61 62
-40 76 8 5 9 9 3 9 -6 0 -17 15 -25 33 -21 53 -89 145 -112 151 -34 9 -43 7
-59 -11z m195 -747 c30 -47 35 -97 12 -116 -10 -8 -35 -10 -84 -5 -70 7 -99
24 -114 67 -7 20 22 48 50 48 11 0 30 11 43 25 35 37 60 32 93 -19z"/>
<path d="M2300 7662 c-46 -20 -99 -84 -140 -166 -14 -27 -48 -74 -76 -105 -28
-31 -54 -66 -58 -78 -4 -13 -11 -23 -15 -23 -5 0 -11 -18 -14 -40 -4 -29 -18
-54 -55 -96 -28 -31 -53 -67 -57 -81 -15 -60 -48 -109 -95 -143 -28 -19 -50
-41 -50 -47 0 -7 -23 -34 -51 -60 -28 -27 -64 -66 -80 -88 -16 -22 -61 -67
-101 -101 -45 -37 -87 -83 -109 -119 -20 -33 -47 -66 -60 -75 -98 -60 -120
-78 -131 -105 -15 -37 -76 -105 -93 -105 -7 0 -27 -16 -45 -36 -30 -34 -30
-37 -14 -55 25 -28 46 -31 84 -11 39 19 240 213 240 231 0 6 5 11 10 11 6 0
10 6 10 13 0 14 27 42 58 61 66 39 122 86 242 204 74 72 161 157 193 188 31
30 57 60 57 65 0 6 11 25 25 43 14 18 25 36 25 41 0 4 46 54 103 110 57 57
112 119 122 139 11 20 23 36 27 36 5 0 8 6 8 14 0 7 13 29 30 47 16 19 30 39
30 46 0 6 23 36 50 67 l51 55 -46 7 c-64 9 -120 0 -146 -25 -22 -20 -39 -27
-39 -15 0 9 58 64 68 64 21 0 60 41 65 70 4 18 13 30 22 30 8 0 15 7 15 15 0
8 -4 15 -9 15 -5 0 -15 2 -23 4 -7 3 -20 2 -28 -2z"/>
<path d="M2440 7448 c-22 -11 -56 -39 -76 -62 -36 -41 -144 -200 -144 -211 0
-3 15 -3 33 0 28 5 35 2 56 -30 13 -19 26 -35 30 -35 3 0 33 -25 66 -55 33
-30 67 -55 76 -55 9 0 19 -7 23 -15 3 -8 12 -15 21 -15 8 0 15 -4 15 -10 0 -5
11 -10 25 -10 14 0 25 -4 25 -10 0 -5 16 -24 35 -42 29 -26 33 -33 20 -40 -21
-13 -19 -28 5 -28 19 0 119 47 130 61 3 3 23 9 45 13 22 4 47 14 56 22 17 16
79 51 141 81 21 10 38 23 38 28 0 6 17 19 38 30 20 10 49 30 64 43 15 14 35
30 46 36 70 40 123 72 160 97 23 16 48 29 54 29 6 0 25 11 43 24 17 13 66 39
108 57 71 31 95 49 65 49 -7 1 -44 5 -82 10 -60 7 -73 6 -95 -9 -26 -18 -66
-38 -133 -65 -61 -24 -268 -42 -329 -28 -28 7 -67 12 -87 12 -20 0 -71 10
-112 21 -41 11 -88 24 -105 28 -16 5 -57 24 -90 42 -99 56 -118 60 -165 37z"/>
<path d="M15096 6934 c-22 -8 -68 -28 -103 -44 -35 -17 -67 -30 -72 -30 -5 0
-22 -6 -38 -14 -15 -8 -39 -19 -53 -24 -14 -6 -41 -17 -60 -25 -38 -16 -127
-49 -200 -73 -25 -9 -54 -19 -65 -23 -52 -20 -157 -55 -225 -76 -94 -29 -241
-82 -343 -124 -43 -17 -87 -31 -97 -31 -10 0 -22 -4 -25 -10 -3 -5 -13 -10
-22 -10 -8 0 -29 -6 -46 -14 -47 -22 -237 -87 -277 -96 -32 -7 -127 -39 -175
-60 -11 -5 -44 -14 -73 -20 -28 -7 -55 -16 -58 -21 -3 -5 -16 -9 -29 -9 -13 0
-28 -6 -32 -12 -4 -7 -19 -14 -33 -15 -43 -2 -150 -35 -150 -45 0 -6 9 -7 23
-3 12 4 49 13 82 19 33 7 67 15 75 18 27 10 123 36 185 48 58 12 343 100 395
122 14 5 86 30 160 55 74 24 144 48 155 53 11 5 40 15 65 23 25 9 70 25 100
37 30 11 116 41 190 66 74 25 151 52 170 60 49 22 93 39 185 74 20 8 87 33
115 44 8 3 22 10 30 15 19 12 86 41 94 41 3 0 31 12 63 26 32 14 67 30 78 34
64 25 75 31 75 45 0 18 -13 18 -64 -1z"/>
<path d="M1758 6679 c-21 -23 -38 -46 -38 -53 -1 -6 -21 -27 -46 -46 -25 -19
-59 -47 -74 -62 -16 -16 -31 -28 -35 -28 -3 0 -21 -11 -39 -25 -18 -14 -36
-25 -41 -25 -12 0 -105 -101 -105 -115 0 -7 -23 -35 -51 -64 -57 -56 -50 -71
8 -18 20 17 50 44 67 60 17 15 35 26 41 24 20 -7 38 -62 39 -120 l1 -59 -55
-49 c-30 -27 -64 -52 -75 -55 -11 -4 -33 -15 -48 -26 -34 -25 -358 -140 -537
-192 -102 -29 -274 -56 -387 -60 -34 -1 -63 -4 -65 -6 -2 -3 -12 -18 -24 -35
-31 -46 -52 -106 -59 -172 l-7 -60 40 -7 c63 -10 307 19 457 54 85 21 275 71
410 110 17 5 77 22 135 38 96 27 204 61 255 81 38 15 90 33 110 38 11 2 29 8
40 13 11 4 40 15 65 25 25 9 59 23 75 30 17 6 41 17 55 23 66 27 418 205 439
221 l23 18 -48 46 c-49 47 -218 140 -339 187 -33 13 -64 27 -69 32 -6 4 -17 8
-27 8 -19 0 -137 87 -153 112 -10 17 4 57 32 86 6 7 12 16 12 20 0 4 16 24 35
44 19 20 35 39 35 42 0 15 -18 3 -52 -35z"/>
<path d="M8455 6705 c-16 -8 -49 -36 -71 -61 -43 -47 -134 -209 -134 -238 0
-8 -18 -43 -39 -76 -22 -34 -42 -74 -46 -90 -3 -16 -23 -48 -43 -72 -51 -59
-68 -99 -48 -110 13 -7 13 -13 4 -36 -7 -15 -18 -34 -25 -43 -7 -8 -13 -23
-13 -31 0 -9 -9 -26 -20 -39 l-19 -24 6 40 6 40 -54 -51 c-52 -50 -70 -68
-184 -184 -30 -30 -59 -67 -64 -82 -6 -15 -25 -34 -46 -44 -36 -17 -51 -33
-105 -110 -17 -25 -39 -44 -56 -48 -57 -15 -114 -75 -114 -120 0 -19 69 -64
108 -72 40 -8 54 12 40 58 -10 32 -8 41 15 81 30 50 49 62 79 46 32 -17 45 -4
59 58 19 83 52 104 94 59 28 -30 62 -25 71 10 4 14 -1 46 -9 72 -15 44 -15 48
3 66 18 19 20 19 39 2 11 -10 30 -16 43 -14 21 3 23 9 26 65 3 53 6 64 28 78
25 16 27 16 55 -11 27 -26 29 -26 54 -10 31 20 31 36 3 104 -20 48 -20 54 -6
68 13 13 19 14 37 3 18 -12 23 -11 42 8 20 19 21 25 10 67 -15 60 -14 64 9 76
17 9 24 6 43 -15 19 -23 26 -25 50 -16 31 12 37 50 12 71 -22 19 -18 47 12 80
17 20 36 30 54 30 15 0 40 10 54 23 l27 22 -21 26 c-20 26 -20 27 -2 48 22 25
75 28 128 6 19 -8 43 -15 53 -15 9 0 25 -9 34 -19 10 -11 29 -22 44 -26 14 -3
59 -22 99 -41 40 -19 76 -34 79 -34 3 0 20 -6 37 -14 66 -29 184 -63 295 -85
121 -25 237 -7 367 54 103 49 109 49 140 21 35 -32 27 -46 -55 -88 -36 -19
-105 -56 -155 -83 -49 -26 -187 -97 -305 -157 -118 -61 -219 -114 -224 -119
-6 -5 -29 -9 -52 -9 -27 0 -44 -5 -47 -14 -7 -17 -108 -66 -136 -66 -11 0 -23
-4 -26 -10 -3 -5 -36 -10 -72 -10 -108 0 -156 50 -169 174 -4 37 -11 69 -16
72 -28 17 -136 -101 -183 -201 -77 -162 -18 -323 130 -356 107 -24 249 24 537
182 78 43 145 73 163 73 25 1 30 5 27 23 -3 18 9 30 55 59 32 20 74 46 93 59
19 12 94 60 165 105 72 46 159 102 195 125 36 23 85 53 110 67 25 14 89 51
142 82 54 31 108 56 120 56 21 0 55 -17 156 -76 27 -16 34 -17 41 -5 14 22 -6
68 -75 171 -62 94 -114 196 -114 225 0 25 -49 97 -97 143 -50 50 -70 50 -123
6 -37 -31 -64 -82 -91 -171 -36 -114 -126 -186 -286 -227 -70 -18 -230 -21
-300 -5 -216 49 -238 63 -347 224 -19 28 -49 59 -67 69 -19 11 -59 46 -89 78
-62 65 -97 78 -145 53z m128 -171 c55 -28 110 -66 141 -97 25 -25 7 -46 -26
-29 -52 26 -127 44 -190 46 -37 1 -71 5 -74 9 -11 10 59 96 79 97 10 0 41 -12
70 -26z"/>
<path d="M4285 6429 c-41 -31 -224 -124 -305 -155 -25 -9 -58 -22 -75 -29 -46
-20 -206 -75 -470 -164 -312 -104 -279 -93 -442 -151 -77 -27 -146 -50 -152
-50 -10 0 -66 -22 -103 -41 -10 -5 -24 -9 -33 -9 -8 0 -29 -6 -47 -14 -18 -8
-85 -33 -148 -56 -63 -23 -124 -46 -135 -51 -11 -4 -83 -29 -160 -54 -77 -26
-210 -73 -295 -105 -200 -76 -241 -90 -262 -90 -10 0 -18 -4 -18 -9 0 -5 -19
-14 -42 -20 -24 -5 -68 -17 -98 -27 -30 -9 -66 -18 -80 -21 -14 -2 -34 -8 -45
-13 -18 -8 -98 -32 -170 -50 -178 -47 -270 -70 -325 -80 -36 -7 -70 -16 -75
-21 -16 -12 -266 -4 -315 10 -41 12 -84 29 -135 51 -11 5 -40 14 -65 21 -25 6
-50 15 -57 20 -8 7 -13 0 -19 -23 -17 -71 8 -136 66 -174 39 -26 48 -27 163
-28 140 -1 234 8 327 30 36 8 81 19 100 24 19 4 58 14 85 20 28 7 68 16 90 20
38 8 180 44 295 76 30 9 69 18 85 21 17 3 35 9 40 13 6 4 26 11 45 15 19 4 41
11 50 16 8 4 78 28 155 53 142 46 211 70 365 126 47 18 99 36 117 41 18 5 35
14 38 19 4 6 14 10 24 10 10 0 40 11 67 25 27 14 55 25 62 25 7 0 20 4 30 9
37 20 154 62 297 107 83 26 196 62 253 80 56 19 111 34 120 34 10 0 27 7 38
15 10 8 31 15 46 15 15 0 30 5 33 10 3 6 15 10 27 10 11 0 32 6 46 14 15 7 43
19 62 26 19 7 98 34 175 62 77 27 151 53 165 58 132 47 299 110 318 120 10 4
40 15 67 24 83 25 139 47 150 57 5 5 18 9 30 9 24 0 96 72 113 114 15 34 7 66
-16 66 -9 0 -35 -14 -57 -31z"/>
<path d="M15573 5661 c-53 -39 -81 -76 -139 -189 -52 -101 -95 -148 -184 -196
-58 -32 -145 -55 -205 -55 -45 -1 -169 21 -260 45 -33 8 -73 19 -90 23 -60 16
-157 50 -195 70 -8 4 -27 33 -42 63 -22 45 -37 62 -75 84 -26 15 -56 34 -65
42 -9 7 -34 20 -55 27 -36 13 -46 22 -56 56 -18 59 -188 -80 -216 -176 -11
-36 -11 -50 -3 -53 17 -5 15 -23 -5 -38 -27 -20 -30 -18 -38 29 l-8 42 -13
-54 c-8 -37 -23 -65 -48 -90 -19 -20 -47 -63 -61 -96 -15 -32 -40 -74 -56 -92
-16 -19 -35 -49 -43 -67 -7 -18 -30 -54 -50 -80 -20 -26 -36 -53 -36 -61 0 -7
-55 -69 -123 -139 -68 -69 -138 -152 -157 -184 -51 -86 -98 -141 -135 -156
-41 -17 -79 -68 -93 -123 -10 -42 -9 -43 14 -43 13 0 24 -5 24 -10 0 -7 -13
-9 -32 -5 -29 5 -39 0 -87 -45 -30 -27 -56 -50 -59 -50 -2 0 -27 -21 -55 -46
-70 -63 -160 -114 -342 -195 -205 -90 -317 -152 -354 -195 -48 -54 -62 -120
-64 -301 -2 -143 0 -162 20 -205 13 -29 33 -52 52 -62 48 -25 57 -19 22 16
-18 18 -38 44 -43 58 -32 85 -39 244 -12 265 10 7 60 17 113 24 53 6 139 18
191 27 52 9 120 19 150 24 30 4 73 13 95 19 22 5 90 22 150 36 61 13 137 32
170 41 33 8 78 20 100 25 22 6 54 15 70 21 17 6 44 13 60 15 17 3 35 9 40 13
6 5 27 11 48 15 20 4 40 11 43 16 3 5 16 9 30 9 13 0 32 5 42 10 9 6 64 25
122 44 234 75 498 187 551 232 8 8 19 14 24 14 5 0 43 16 84 36 156 75 239
112 325 145 28 11 71 29 96 41 57 26 155 63 245 93 39 13 81 28 95 33 14 6 52
18 85 27 33 10 80 25 105 35 25 10 86 30 135 45 50 15 119 38 155 51 36 13 71
24 77 24 7 0 27 6 45 14 42 17 96 34 301 91 l57 16 0 130 c0 71 -4 129 -8 129
-5 0 -17 27 -27 61 -17 57 -22 63 -86 106 l-68 45 -68 -44 c-37 -25 -75 -48
-83 -52 -8 -3 -33 -17 -55 -29 -22 -13 -74 -42 -115 -64 -111 -61 -203 -112
-220 -123 -8 -5 -58 -34 -110 -65 -52 -31 -124 -74 -159 -95 -34 -22 -65 -40
-68 -40 -2 0 -19 -11 -36 -24 -18 -13 -59 -38 -92 -56 -33 -18 -80 -44 -104
-58 -104 -58 -175 -92 -191 -92 -10 0 -23 -7 -30 -15 -7 -8 -21 -15 -31 -15
-10 0 -20 -4 -23 -9 -6 -9 -65 -31 -136 -51 -25 -7 -61 -18 -80 -25 -19 -7
-71 -16 -115 -20 -74 -6 -85 -5 -136 19 -64 31 -102 81 -120 162 -25 112 41
250 182 377 96 87 107 82 142 -66 25 -103 60 -137 141 -137 55 0 222 55 249
82 9 9 31 20 49 23 26 6 170 72 231 105 9 6 25 14 35 20 9 5 40 21 67 35 28
13 68 36 90 50 49 30 39 25 269 144 105 54 192 103 194 109 2 6 -9 12 -25 14
-44 5 -37 39 17 79 24 19 57 52 72 74 33 49 88 160 88 178 0 8 12 31 26 52 32
48 26 65 -24 65 -27 0 -51 -9 -79 -29z m-1361 -114 c21 -7 48 -23 61 -35 13
-12 28 -22 33 -22 19 0 86 -69 82 -86 -7 -38 -32 -38 -110 0 -41 20 -82 36
-90 36 -8 0 -23 7 -34 15 -10 8 -33 15 -51 15 -17 0 -35 5 -39 11 -8 14 26 60
57 77 25 13 30 12 91 -11z"/>
<path d="M15648 5210 c-23 -7 -89 -39 -198 -96 -14 -7 -68 -33 -120 -58 -52
-26 -144 -72 -205 -104 -112 -60 -152 -80 -205 -107 -28 -14 -77 -39 -110 -56
-8 -4 -40 -21 -70 -37 -59 -32 -191 -85 -317 -129 -89 -30 -164 -34 -210 -10
-41 22 -103 107 -103 143 0 38 -10 74 -21 74 -17 0 -134 -151 -152 -197 -23
-59 -19 -165 8 -206 31 -49 78 -69 143 -64 99 9 263 51 330 86 9 5 82 41 163
80 80 39 154 79 165 89 10 10 44 30 74 46 30 16 62 34 70 40 8 7 56 37 105 68
50 30 149 92 221 137 72 44 133 81 136 81 3 0 43 22 89 48 46 27 137 75 201
107 65 32 115 62 112 66 -6 11 -69 10 -106 -1z"/>
<path d="M3398 4835 c-35 -32 -41 -34 -85 -29 -26 3 -61 11 -76 16 -23 9 -31
8 -37 -2 -15 -24 8 -53 37 -47 14 3 38 0 53 -7 l27 -11 -28 -38 c-15 -21 -30
-33 -34 -27 -11 19 -45 11 -45 -10 0 -13 7 -20 20 -20 34 0 23 -20 -55 -93
-41 -38 -75 -76 -75 -84 0 -15 -35 -53 -49 -53 -5 0 -11 -6 -14 -14 -4 -9 -14
-12 -26 -9 -19 5 -47 -27 -35 -40 3 -3 1 -13 -4 -24 -6 -10 -16 -33 -22 -50
-7 -18 -16 -33 -21 -33 -5 0 -9 -7 -9 -15 0 -8 2 -15 5 -15 11 0 45 35 45 46
0 7 7 14 15 18 8 3 21 18 28 33 14 32 35 54 71 78 14 10 26 26 26 36 0 10 12
27 27 36 15 10 44 35 64 56 20 20 40 37 44 37 11 0 85 -76 85 -88 0 -7 9 -12
20 -12 13 0 24 -10 30 -24 6 -18 20 -27 45 -32 37 -7 45 -18 19 -28 -28 -11
-3 -28 33 -23 29 5 35 3 43 -19 8 -21 16 -24 45 -22 37 2 60 -16 47 -37 -4 -5
-8 -30 -9 -55 -3 -42 -2 -44 12 -26 8 11 15 27 15 35 1 38 15 44 63 26 l46
-17 98 54 c216 121 270 152 321 184 29 19 56 34 61 34 4 0 24 11 43 24 19 12
61 38 94 56 32 17 61 35 64 39 3 4 42 29 87 57 45 27 83 51 83 54 0 7 -82 40
-98 40 -7 0 -30 -13 -50 -29 -46 -35 -145 -76 -235 -96 -193 -43 -427 11 -650
149 -100 62 -114 64 -159 21z"/>
<path d="M4860 4762 c0 -11 -131 -107 -220 -161 -30 -19 -57 -36 -60 -40 -6
-7 -32 -24 -75 -47 -16 -9 -50 -34 -75 -54 -25 -21 -61 -46 -80 -56 -19 -11
-56 -34 -82 -52 -26 -17 -49 -32 -53 -32 -3 0 -29 -17 -58 -38 -29 -21 -86
-59 -127 -85 -112 -69 -130 -87 -123 -119 6 -34 23 -37 23 -5 0 12 5 29 10 37
8 13 14 13 44 -4 51 -27 134 -114 141 -148 4 -15 11 -28 16 -28 5 0 21 -13 36
-30 34 -38 89 -42 102 -7 8 19 10 20 16 5 10 -25 -1 -48 -23 -48 -11 0 -25 -7
-33 -16 -8 -10 -21 -13 -37 -9 -13 3 -30 1 -38 -6 -12 -9 -14 -5 -14 26 0 29
-3 36 -17 33 -14 -3 -17 -12 -15 -46 2 -42 2 -42 -32 -42 -22 0 -36 -6 -40
-16 -6 -15 -18 -16 -89 -11 -45 4 -89 2 -97 -3 -13 -8 -13 -9 0 -14 52 -16
117 -26 169 -26 54 0 61 2 61 20 0 12 7 20 16 20 12 0 15 -8 12 -32 -7 -75 77
-173 128 -149 19 8 24 18 24 46 0 26 -4 35 -16 35 -11 0 -15 -6 -11 -20 8 -30
-9 -34 -42 -11 -16 12 -34 21 -39 21 -24 0 -22 24 4 51 22 23 24 29 11 29 -17
0 -35 45 -23 57 3 3 35 6 71 7 47 1 69 5 75 16 9 13 13 11 29 -9 12 -15 24
-22 35 -18 18 7 21 23 6 32 -5 3 -10 17 -10 31 0 17 -5 24 -20 24 -21 0 -27
15 -9 25 6 4 16 -1 23 -11 8 -10 18 -14 26 -9 8 5 19 -1 31 -16 15 -19 19 -20
19 -7 0 9 14 24 32 32 29 15 33 15 49 0 22 -20 42 -9 34 17 -5 15 -1 19 16 19
12 0 27 -7 33 -14 18 -24 76 5 76 39 0 16 6 25 15 25 8 0 15 -6 15 -14 0 -15
28 -42 36 -34 2 3 7 15 9 28 9 49 55 70 55 25 0 -14 -4 -25 -9 -25 -5 0 -13
-10 -16 -22 -4 -13 -32 -47 -62 -76 -40 -39 -59 -51 -74 -47 -16 5 -19 1 -19
-24 0 -31 8 -38 26 -22 5 5 23 11 39 13 27 3 30 7 33 41 3 29 7 37 23 37 10 0
19 4 19 8 0 5 13 23 29 41 17 19 31 43 33 55 2 16 10 21 32 21 35 0 57 28 38
47 -10 10 -14 10 -21 0 -7 -11 -9 -11 -13 0 -7 19 1 38 15 32 7 -2 26 0 42 5
l30 8 -37 8 c-21 4 -38 12 -38 18 0 6 -9 1 -20 -11 -11 -12 -20 -26 -20 -31 0
-18 -41 -34 -53 -22 -16 16 -25 14 -32 -9 -10 -32 -42 -25 -50 11 -8 36 4 49
47 49 15 0 30 5 33 10 3 6 14 10 25 10 10 0 20 6 23 14 7 18 75 30 91 16 10
-8 18 -4 30 16 11 16 23 23 33 20 8 -4 28 5 45 19 16 14 40 25 53 25 13 0 36
5 50 10 39 15 48 3 25 -31 -17 -24 -25 -27 -40 -19 -25 13 -30 13 -30 -3 0
-18 32 -47 53 -47 9 0 20 6 24 14 10 18 95 25 101 8 2 -8 -7 -12 -27 -12 -41
0 -47 -15 -17 -45 31 -31 39 -78 14 -83 -11 -2 -18 3 -18 13 0 8 -7 27 -16 40
-15 23 -17 24 -45 9 -36 -18 -38 -44 -5 -44 33 0 88 -51 88 -81 0 -40 -19 -96
-41 -125 -14 -18 -20 -36 -17 -50 4 -16 -1 -28 -20 -43 -15 -12 -31 -21 -35
-21 -14 0 -10 38 4 43 6 2 9 8 5 12 -4 4 -26 -11 -50 -34 -48 -46 -102 -75
-123 -67 -11 4 -13 18 -9 58 5 49 4 52 -10 34 -9 -11 -16 -27 -16 -37 0 -9
-10 -19 -21 -22 -18 -5 -21 -11 -16 -36 6 -31 -9 -46 -37 -35 -8 3 -19 -3 -26
-15 -12 -24 -45 -28 -54 -6 -9 25 -40 17 -58 -15 -18 -31 -45 -42 -34 -14 17
46 15 60 -13 92 -31 35 -50 28 -30 -10 16 -30 20 -118 4 -118 -6 0 -17 6 -24
13 -10 10 -17 7 -36 -15 -29 -34 -35 -35 -35 -7 0 17 -4 20 -22 15 -17 -4 -29
1 -48 23 -14 16 -34 32 -45 35 -18 5 -23 0 -31 -34 -13 -46 -10 -50 26 -50 28
0 58 -24 43 -33 -4 -3 -29 -8 -55 -12 -26 -4 -49 -13 -52 -21 -9 -23 -24 -16
-42 21 -9 19 -20 35 -24 35 -11 0 -20 -27 -20 -61 0 -33 -7 -37 -25 -12 -11
14 -13 13 -19 -10 -4 -17 -15 -29 -31 -33 -34 -8 -51 0 -67 32 -17 35 -38 43
-38 14 0 -12 -11 -31 -25 -42 -14 -11 -25 -26 -25 -34 0 -19 -16 -18 -24 1 -3
8 -12 15 -21 15 -8 0 -15 -7 -15 -15 0 -23 -41 -19 -47 5 -5 20 -29 20 -78 0
-11 -4 -28 -11 -38 -14 -25 -8 -17 -40 11 -44 16 -3 22 2 22 16 0 20 41 38 60
27 18 -11 11 -45 -8 -45 -10 0 -27 -7 -38 -15 -10 -8 -27 -15 -37 -15 -23 0
-79 62 -66 75 15 15 10 62 -7 69 -9 4 -19 5 -21 3 -7 -8 -5 -136 2 -148 9 -14
-12 -29 -42 -29 -13 0 -23 -4 -23 -10 0 -5 -12 -17 -26 -27 -20 -13 -30 -14
-44 -5 -15 9 -19 7 -23 -9 -7 -28 -37 -24 -37 4 0 13 -3 27 -7 30 -12 13 -43
-26 -43 -55 0 -19 -4 -28 -12 -25 -7 2 -13 16 -13 32 0 15 -6 30 -12 32 -8 3
-13 -5 -13 -21 0 -30 -15 -33 -41 -10 -24 22 -40 9 -33 -25 5 -26 3 -30 -24
-36 -17 -3 -33 -13 -36 -22 -4 -9 -13 -13 -23 -9 -9 4 -24 -1 -33 -9 -11 -10
-20 -12 -24 -6 -4 5 -2 12 3 15 11 7 -9 66 -22 66 -5 0 -6 -18 -2 -39 7 -44
-6 -61 -32 -40 -13 11 -17 10 -29 -6 -8 -10 -14 -22 -14 -26 0 -3 -15 -9 -32
-12 -18 -4 -43 -9 -55 -13 -19 -5 -23 -3 -23 18 0 30 -17 48 -47 48 -33 0 -30
-35 5 -65 23 -20 25 -24 10 -30 -11 -4 -30 3 -52 20 -29 22 -35 33 -33 58 1
25 -3 34 -20 42 -13 5 -23 15 -23 22 0 16 -26 17 -35 2 -4 -6 2 -17 13 -25 13
-9 22 -28 24 -52 2 -27 9 -40 25 -47 27 -11 38 -34 24 -48 -7 -7 -17 -5 -29 6
-27 25 -56 22 -49 -4 4 -15 -1 -22 -19 -29 -14 -6 -28 -9 -32 -8 -4 1 -25 -4
-46 -10 -22 -6 -43 -9 -48 -6 -14 9 1 24 23 24 23 0 21 25 -2 25 -8 0 -20 4
-27 8 -7 5 -21 5 -32 2 -17 -6 -20 -2 -20 28 0 21 -6 37 -14 40 -15 6 -32 64
-22 74 3 3 18 6 33 7 19 1 29 7 31 20 4 16 0 18 -28 12 -18 -3 -40 -6 -50 -6
-9 0 -30 -10 -46 -22 l-28 -23 28 -5 c25 -4 32 -13 47 -60 10 -30 19 -62 19
-71 0 -8 11 -26 25 -39 33 -31 18 -48 -24 -30 -17 7 -31 17 -31 22 0 5 -10 8
-22 6 -18 -2 -23 -9 -21 -30 1 -23 -5 -31 -34 -45 -33 -15 -36 -15 -48 0 -17
23 -30 21 -49 -8 -19 -29 -41 -23 -32 8 7 27 -20 57 -51 57 -27 0 -30 -24 -8
-54 8 -11 15 -24 15 -28 0 -11 -70 1 -86 14 -8 5 -14 3 -18 -8 -4 -11 0 -18
14 -21 11 -3 20 -9 20 -14 0 -13 -28 -11 -59 6 -26 13 -29 13 -41 -9 -7 -13
-22 -28 -35 -34 -19 -9 -27 -7 -44 12 -12 12 -21 28 -21 34 0 27 -19 9 -22
-20 -3 -28 -7 -33 -33 -36 -16 -2 -34 -11 -41 -19 -8 -13 -21 -15 -57 -10 -37
5 -48 3 -57 -11 -8 -12 -13 -13 -16 -4 -6 13 -64 17 -64 5 0 -5 -13 -15 -29
-24 -20 -12 -33 -14 -46 -6 -14 7 -21 5 -32 -9 -26 -36 -173 -18 -173 21 0 17
16 20 25 5 9 -14 22 -12 29 5 10 27 -20 43 -69 38 -60 -7 -61 19 -2 45 19 8
27 18 23 27 -5 14 30 32 41 21 3 -3 18 3 33 14 15 11 35 17 47 14 27 -7 39 13
13 21 -16 5 -19 12 -14 32 6 22 4 25 -10 20 -10 -4 -19 -7 -21 -7 -2 0 -1 -8
2 -18 2 -10 -5 -26 -16 -36 -22 -20 -19 -22 -36 30 -7 23 -30 11 -28 -15 2
-16 -3 -21 -22 -21 -15 0 -25 6 -25 14 0 21 -24 26 -65 15 -20 -6 -39 -8 -43
-5 -3 3 -11 1 -18 -5 -20 -17 -50 38 -58 107 -5 47 -3 64 8 73 16 13 10 51 -8
51 -18 0 -61 -49 -85 -95 -29 -57 -51 -191 -51 -315 0 -167 37 -220 160 -234
57 -7 229 12 310 33 19 5 71 17 115 26 44 9 87 20 95 25 9 4 40 11 70 14 30 4
66 11 80 16 14 4 88 22 165 40 77 17 154 36 171 41 17 5 42 9 55 9 14 0 29 4
35 9 8 9 180 55 249 68 17 3 35 9 40 13 8 6 80 29 250 81 189 57 559 186 618
215 16 8 36 14 45 14 9 0 26 7 36 15 11 8 30 15 42 15 13 0 26 5 29 10 3 6 21
10 39 10 17 0 37 5 42 10 6 6 23 13 39 16 15 3 36 9 46 14 10 6 27 10 38 10
12 0 29 4 39 9 9 5 85 30 167 56 130 40 306 99 370 125 11 4 67 22 125 40 58
17 112 35 120 39 8 4 42 16 75 26 33 9 74 24 92 31 17 8 37 14 45 14 8 0 18 4
24 8 5 4 34 16 64 26 30 11 59 23 64 27 6 5 16 9 24 9 44 0 207 90 253 140 40
42 59 113 40 147 -5 10 -24 61 -42 113 -47 139 -57 165 -86 234 -14 33 -32 93
-40 131 -16 77 -55 197 -84 261 -22 50 -71 104 -93 104 -9 0 -39 11 -66 25
-54 28 -130 43 -130 27z"/>
<path d="M6432 4583 c-16 -53 -21 -95 -22 -188 -1 -198 34 -284 126 -306 52
-11 77 -11 69 1 -3 6 -15 10 -26 10 -36 0 -78 41 -99 98 -16 43 -20 75 -19
141 2 47 6 93 11 102 4 10 1 29 -8 49 -16 32 -16 103 1 143 4 9 3 17 -2 17 -5
0 -19 -30 -31 -67z"/>
<path d="M10509 4093 c-54 -58 -67 -85 -74 -154 -14 -128 -40 -194 -104 -258
-27 -27 -120 -81 -139 -81 -10 0 -24 -6 -31 -12 -16 -17 -247 -16 -264 1 -6 6
-23 11 -39 11 -15 0 -44 7 -65 16 -21 9 -49 21 -63 26 -67 26 -162 97 -190
144 -25 40 -88 92 -145 119 -22 11 -57 30 -77 43 -21 12 -46 22 -57 22 -46 0
-147 -137 -136 -184 4 -15 -3 -28 -22 -43 -117 -95 -128 -109 -163 -200 -6
-17 -23 -40 -37 -50 -31 -22 -83 -75 -83 -85 0 -16 -148 -173 -197 -210 -30
-22 -57 -47 -60 -56 -4 -9 -54 -62 -112 -118 -58 -57 -124 -121 -146 -144 -22
-22 -64 -65 -94 -95 -32 -33 -51 -60 -48 -68 6 -15 -45 -70 -75 -80 -13 -5
-18 -20 -20 -63 -3 -53 -6 -59 -34 -75 -17 -9 -40 -16 -50 -16 -10 1 -23 -9
-30 -23 -35 -67 -185 -190 -233 -190 -6 0 -30 -13 -54 -30 -25 -16 -48 -30
-51 -30 -4 0 -49 -27 -102 -60 -52 -33 -97 -60 -99 -60 -5 0 -108 -70 -130
-89 -11 -9 -37 -26 -58 -37 -41 -20 -95 -86 -119 -144 -27 -66 -17 -351 15
-435 37 -97 168 -134 372 -104 39 5 102 14 140 18 39 5 99 18 135 28 36 11
101 28 145 38 44 9 89 21 100 25 19 8 48 16 150 41 22 6 44 14 50 20 5 5 17 9
28 9 16 0 142 38 187 57 8 3 20 7 25 7 6 1 24 6 40 13 17 6 64 21 105 33 41
12 90 28 108 36 18 8 41 14 52 14 10 0 21 4 24 9 3 5 18 11 33 14 16 2 53 14
83 26 30 11 62 21 71 21 9 0 22 7 29 15 7 8 22 15 34 15 21 0 92 22 124 39 9
5 40 16 67 24 78 24 118 39 147 53 14 8 35 14 46 14 12 0 24 5 27 10 3 6 13
10 22 10 8 0 29 6 46 14 55 23 132 53 197 75 127 43 156 54 165 62 5 5 18 9
30 9 12 0 30 7 41 15 10 8 31 15 46 15 15 0 30 5 33 10 3 6 13 10 22 10 8 0
29 6 46 13 18 8 57 22 87 32 30 10 59 22 65 26 5 5 18 9 30 9 11 0 29 7 39 15
11 8 32 15 47 15 15 0 31 5 34 10 3 6 13 10 22 10 8 0 29 6 46 14 18 8 72 26
120 42 48 15 90 31 93 36 3 4 13 8 22 8 10 0 71 18 137 39 66 22 141 42 168
46 26 4 50 11 53 16 3 5 12 9 21 9 34 0 149 65 185 103 54 58 64 160 21 209
-12 14 -13 21 -4 32 10 11 8 18 -9 34 -12 11 -26 46 -35 83 -22 99 -59 193
-92 230 -7 9 -18 42 -23 74 -17 103 -47 195 -104 316 -20 41 -36 80 -36 86 0
5 -11 27 -25 48 -14 20 -42 68 -62 106 -20 38 -40 69 -44 69 -4 0 -33 52 -64
115 -59 120 -77 140 -163 183 -58 30 -72 28 -113 -15z m689 -1261 c9 -6 6 -14
-13 -32 -14 -13 -25 -28 -25 -34 0 -6 -14 -19 -30 -28 -32 -18 -39 -42 -15
-55 19 -11 -77 -58 -100 -49 -27 10 -6 26 33 26 28 0 33 3 24 12 -13 13 -179
-5 -214 -23 -31 -17 -43 3 -23 35 10 14 21 26 25 26 4 0 19 11 34 25 15 14 34
25 42 25 7 0 14 4 14 9 0 13 127 54 145 48 7 -3 19 1 25 9 13 15 57 19 78 6z"/>
<path d="M3690 3743 c0 -16 5 -34 11 -40 12 -12 15 -65 5 -82 -13 -20 -22 -12
-32 27 -7 26 -14 36 -26 34 -9 -1 -19 2 -23 8 -3 5 -12 10 -20 10 -20 0 4 -57
27 -63 27 -8 22 -32 -14 -62 -28 -23 -38 -26 -75 -21 -35 5 -45 2 -55 -13 -7
-11 -19 -16 -30 -13 -14 3 -18 -1 -18 -22 0 -19 5 -26 19 -26 11 0 23 5 26 10
3 6 15 10 26 10 15 0 19 -5 14 -19 -9 -29 22 -35 40 -7 9 13 14 29 13 36 -2 6
18 19 44 27 29 10 48 22 51 34 3 11 12 19 20 19 8 0 28 7 43 15 28 15 29 14
38 -10 16 -40 40 -32 32 10 l-7 35 43 0 c24 -1 54 -7 68 -15 33 -19 76 -19 84
0 5 15 42 15 79 0 12 -5 17 -2 17 8 0 22 -14 28 -63 29 -28 0 -52 8 -73 23
-23 17 -34 21 -42 13 -8 -8 -15 -8 -26 1 -8 7 -30 11 -48 9 -28 -2 -34 -7 -36
-31 -2 -15 -13 -32 -24 -38 -21 -12 -22 -6 -7 50 2 9 -6 17 -21 20 -15 4 -26
16 -30 31 -8 35 -30 37 -30 3z"/>
<path d="M3128 3344 c-16 -8 -28 -18 -28 -22 0 -11 -86 -52 -93 -45 -3 3 -1
14 6 24 9 14 9 21 -1 31 -11 11 -15 10 -23 -4 -5 -9 -16 -24 -24 -32 -8 -8
-15 -22 -15 -30 0 -9 -8 -16 -20 -16 -16 0 -20 7 -20 36 0 24 -4 34 -12 31 -9
-2 -12 -19 -10 -46 4 -49 -14 -56 -31 -11 -12 31 -34 39 -55 18 -19 -19 -14
-38 11 -35 16 1 22 -3 22 -18 0 -11 6 -31 14 -44 l14 -25 15 30 c8 16 16 30
17 32 2 2 15 -4 29 -13 18 -12 26 -26 26 -45 0 -21 7 -30 30 -40 17 -7 30 -16
30 -21 0 -5 7 -9 15 -9 23 0 18 16 -10 34 -14 9 -25 25 -25 36 0 11 -7 20 -15
20 -10 0 -15 11 -15 35 0 33 2 35 33 35 38 -1 77 -30 77 -59 0 -29 24 -26 40
4 15 29 7 42 -29 47 -34 4 -38 26 -7 34 14 3 26 13 26 21 0 9 8 13 23 11 18
-2 23 -10 25 -40 2 -24 8 -38 17 -38 17 0 29 35 19 52 -5 7 -8 26 -9 42 0 35
-11 40 -47 20z"/>
<path d="M2432 3118 c3 -28 -1 -34 -19 -36 -13 -2 -23 -8 -23 -13 0 -5 -16 -9
-35 -9 -22 0 -38 -6 -41 -15 -4 -9 -19 -15 -39 -15 -40 0 -55 -17 -26 -28 19
-7 20 -9 6 -36 l-15 -28 50 7 c35 5 50 3 50 -5 0 -6 15 -17 33 -25 28 -12 34
-11 50 2 16 15 24 73 11 86 -4 3 -21 -5 -39 -18 -43 -33 -52 -32 -60 11 -7 41
7 66 27 46 17 -17 24 -15 47 9 16 17 23 19 40 10 12 -7 21 -22 21 -36 0 -13 4
-26 9 -29 16 -10 20 48 5 76 -8 15 -13 37 -11 50 1 17 -4 24 -21 26 -20 3 -22
0 -20 -30z"/>
<path d="M14825 2465 c-15 -21 -43 -67 -62 -104 -18 -36 -46 -86 -62 -111 -19
-30 -30 -59 -30 -85 -1 -52 -90 -231 -147 -294 -23 -26 -62 -57 -86 -70 -28
-14 -51 -36 -64 -59 -28 -54 -116 -148 -179 -194 -46 -33 -61 -51 -90 -113
-25 -54 -43 -78 -64 -90 -17 -8 -41 -31 -54 -51 -47 -68 -157 -182 -209 -216
-29 -19 -107 -63 -172 -97 -214 -112 -371 -209 -404 -250 -34 -41 -52 -98 -52
-163 0 -64 1 -68 25 -74 29 -7 62 -2 125 19 25 9 74 21 110 26 36 6 92 17 125
25 100 24 338 86 365 95 36 12 184 57 255 77 97 27 299 93 317 104 10 6 24 10
31 10 12 0 122 44 232 93 17 8 194 95 395 195 330 164 407 201 520 249 19 8
50 21 68 29 18 8 39 14 47 14 7 0 26 7 42 15 15 8 67 29 115 47 l88 33 0 380
0 381 -74 -36 c-41 -20 -103 -42 -139 -48 -168 -31 -440 5 -542 72 -14 9 -34
37 -46 64 -11 26 -36 60 -55 76 -46 38 -142 72 -230 81 l-70 7 -29 -37z m412
-247 c40 -18 71 -37 70 -43 -5 -14 -60 -12 -72 3 -15 19 -77 -6 -70 -29 6 -18
-13 -69 -26 -69 -4 0 -9 5 -11 11 -3 9 -16 9 -53 0 -41 -10 -53 -18 -65 -44
-8 -18 -24 -34 -34 -36 -19 -3 -19 -3 -1 25 10 16 29 40 42 54 14 13 33 42 43
65 23 51 64 95 87 95 10 0 51 -15 90 -32z m-919 -993 c7 -14 12 -32 12 -40 0
-20 -32 -85 -42 -85 -4 0 -30 -15 -56 -33 -54 -38 -264 -137 -290 -137 -10 0
-23 -5 -29 -11 -6 -6 -21 -9 -34 -7 -20 2 -11 10 46 41 39 22 82 51 98 65 15
14 42 31 60 37 19 6 33 18 36 30 2 10 15 31 30 46 14 14 43 47 64 73 46 55 86
63 105 21z m-178 -285 c0 -5 -3 -10 -7 -10 -5 0 -40 -29 -80 -63 -83 -72 -196
-127 -314 -152 -94 -19 -121 -19 -192 3 -50 16 -56 20 -43 31 9 8 44 19 78 26
73 15 103 24 213 61 119 39 234 81 285 102 32 14 60 15 60 2z"/>
<path d="M4975 1829 c-27 -4 -120 -11 -205 -14 -211 -8 -400 -21 -408 -29 -3
-4 -1 -16 6 -26 7 -11 12 -29 12 -41 0 -17 3 -19 14 -10 10 8 34 10 73 6 54
-6 59 -5 68 17 19 45 125 30 125 -18 0 -29 14 -38 30 -19 15 18 90 21 90 4 0
-8 5 -7 16 2 24 20 84 23 84 4 0 -8 4 -15 10 -15 5 0 7 7 3 16 -5 14 -2 16 21
10 16 -4 34 -2 41 4 10 8 16 7 23 -6 10 -19 32 -11 32 12 0 8 7 14 15 14 8 0
15 3 15 8 0 12 61 41 108 51 64 14 61 19 -15 26 -37 3 -77 7 -88 9 -11 2 -42
0 -70 -5z"/>
<path d="M11427 1172 c-10 -10 -17 -27 -17 -37 0 -27 -30 -118 -67 -202 -28
-65 -118 -143 -222 -190 -51 -24 -67 -26 -186 -25 -104 0 -144 5 -200 22 -38
12 -86 25 -105 29 -19 4 -82 31 -140 59 -178 86 -285 105 -328 59 -25 -26 -29
-47 -9 -47 8 0 23 -10 35 -23 20 -21 21 -25 6 -45 -13 -18 -25 -22 -74 -22
-56 0 -60 -2 -76 -31 -11 -23 -13 -34 -5 -42 15 -15 14 -52 -3 -66 -7 -6 -29
-10 -47 -9 l-34 3 -3 -77 c-3 -91 -15 -107 -62 -88 -27 11 -33 10 -51 -6 -18
-16 -20 -26 -14 -79 5 -52 3 -63 -13 -78 -18 -16 -20 -16 -45 3 -14 11 -32 20
-39 20 -22 0 -40 -42 -42 -96 l-1 -49 -35 3 c-30 2 -38 -2 -51 -25 -9 -16 -19
-47 -22 -70 l-5 -43 708 0 c462 0 711 3 715 10 3 6 14 10 24 10 10 0 69 26
132 58 64 31 129 62 145 68 72 28 243 98 289 119 28 12 73 30 100 40 28 10 54
22 59 27 6 4 18 8 27 8 9 0 30 7 45 15 16 8 37 15 47 15 12 0 17 8 17 27 0 38
-72 233 -97 263 -7 9 -17 38 -23 65 -6 28 -24 70 -40 95 -17 25 -34 52 -40 60
-5 8 -42 69 -82 135 -39 66 -81 128 -92 138 -25 22 -59 22 -79 -1z"/>
<path d="M15949 1050 c-9 -5 -63 -25 -120 -44 -57 -18 -117 -39 -134 -46 -55
-23 -70 -28 -90 -34 -11 -2 -38 -11 -60 -20 -94 -35 -214 -78 -270 -97 -33
-11 -69 -24 -80 -29 -11 -5 -45 -16 -75 -26 -30 -9 -64 -20 -75 -24 -71 -27
-113 -40 -131 -40 -11 0 -23 -3 -27 -6 -7 -7 -216 -81 -262 -94 -16 -4 -41
-12 -55 -18 -14 -5 -45 -15 -70 -22 -25 -7 -56 -17 -70 -22 -33 -14 -278 -88
-310 -95 -14 -2 -34 -8 -45 -13 -11 -5 -58 -18 -105 -31 -47 -12 -107 -29
-135 -36 -161 -45 -306 -56 -435 -33 -46 8 -154 18 -222 20 -10 0 -25 12 -33
27 -16 27 -16 27 -10 3 4 -14 11 -50 16 -80 12 -68 35 -108 78 -137 51 -34
103 -37 221 -13 58 12 123 26 145 30 78 15 171 38 240 59 75 23 105 31 200 56
153 39 1126 362 1142 379 4 3 15 6 25 6 10 0 26 4 36 9 9 4 33 14 52 20 333
115 428 148 450 160 9 5 30 12 48 15 17 4 34 12 37 17 4 5 13 9 22 9 9 0 49
12 90 27 l73 28 0 52 c0 48 -2 53 -22 53 -13 0 -30 -5 -39 -10z"/>
<path d="M10 180 l0 -150 105 0 c92 0 105 2 105 17 0 9 -8 26 -19 37 -10 12
-29 41 -42 66 -39 73 -102 158 -126 169 l-23 11 0 -150z"/>
</g>
</svg>
