<?xml version="1.0" standalone="no"?>
<!DOCTYPE svg PUBLIC "-//W3C//DTD SVG 20010904//EN"
 "http://www.w3.org/TR/2001/REC-SVG-20010904/DTD/svg10.dtd">
<svg version="1.0" xmlns="http://www.w3.org/2000/svg"
 width="843.000000pt" height="443.000000pt" viewBox="0 0 843.000000 443.000000"
 preserveAspectRatio="xMidYMid meet">
<metadata>
Created by potrace 1.16, written by Peter Selinger 2001-2019
</metadata>
<g transform="translate(0.000000,443.000000) scale(0.100000,-0.100000)"
fill="#000000" stroke="none">
<path d="M3548 3985 c-62 -20 -150 -101 -183 -169 -16 -33 -29 -83 -36 -141
-16 -131 -15 -128 -64 -164 -25 -18 -104 -88 -176 -157 -155 -147 -299 -247
-489 -338 -224 -106 -385 -156 -580 -180 -76 -9 -199 13 -268 48 -131 66 -210
158 -299 347 -58 123 -48 116 -227 148 -60 11 -115 26 -122 33 -7 7 -24 42
-39 78 -36 86 -59 116 -105 140 -61 31 -124 26 -206 -14 -118 -60 -192 -146
-220 -259 -31 -118 -2 -239 85 -363 l48 -69 -19 -60 c-77 -247 -146 -687 -168
-1075 -20 -356 -9 -310 -106 -446 -47 -65 -101 -148 -121 -182 -42 -74 -41
-81 2 -317 45 -244 54 -276 89 -311 77 -77 611 -201 1116 -258 454 -52 311
-49 2589 -53 2210 -4 3007 4 3231 32 307 38 508 91 653 175 43 24 111 75 152
112 86 80 107 124 126 264 26 195 -29 387 -144 506 -80 84 -125 105 -672 310
-811 304 -1077 417 -1294 546 -91 55 -281 164 -421 242 -267 150 -500 289
-885 529 l-230 143 -60 101 c-217 363 -544 723 -716 788 -71 27 -180 33 -241
14z m193 -266 c48 -30 265 -247 256 -255 -3 -3 -47 17 -98 45 -96 51 -210 91
-258 91 -70 0 -93 64 -42 119 38 41 79 41 142 0z m-2841 -255 c21 -55 12 -95
-34 -153 -24 -31 -60 -82 -79 -113 -20 -31 -41 -59 -46 -63 -30 -18 -68 122
-51 186 18 64 132 167 188 169 7 0 17 -12 22 -26z m2822 -146 c40 -19 150 -86
243 -148 136 -91 941 -597 1234 -775 35 -22 65 -45 68 -52 3 -7 -39 -70 -93
-140 -328 -430 -817 -1064 -846 -1097 l-34 -39 -219 22 c-121 12 -335 33 -475
47 -307 30 -544 60 -624 80 -207 52 -811 374 -1386 737 -159 101 -548 352
-665 429 l-110 73 3 40 c4 54 66 296 98 387 32 88 97 216 126 248 18 19 27 21
69 16 93 -13 105 -21 160 -115 28 -47 74 -115 102 -150 64 -81 185 -184 252
-216 85 -40 224 -76 315 -82 194 -12 487 71 791 223 241 120 370 210 556 386
152 144 201 171 295 165 49 -3 86 -13 140 -39z m-2889 -1084 c18 -9 118 -72
222 -139 468 -300 954 -595 1230 -746 52 -28 74 -45 62 -47 -16 -3 -212 21
-502 63 -55 8 -248 35 -430 60 -512 70 -668 95 -682 107 -23 18 -10 308 28
617 13 113 14 114 72 85z m4643 0 c49 -21 268 -143 458 -256 82 -49 183 -106
225 -127 195 -98 606 -262 1331 -531 237 -88 365 -142 392 -167 31 -28 65
-102 77 -168 13 -67 15 -162 4 -168 -13 -8 -700 12 -1003 28 -412 22 -828 51
-1205 85 -656 59 -1234 116 -1241 123 -5 5 150 212 501 667 351 455 409 529
416 530 4 0 24 -7 45 -16z m-4636 -899 c63 -9 279 -38 480 -66 570 -78 1319
-179 1660 -223 711 -92 2637 -278 3535 -341 296 -20 720 -43 940 -50 99 -3
214 -8 255 -11 67 -6 72 -7 55 -20 -57 -42 -329 -107 -520 -124 -296 -27
-5039 -36 -5415 -10 -353 24 -766 89 -1130 176 -80 19 -150 38 -157 42 -11 7
-60 248 -52 257 3 2 29 -2 59 -10 200 -53 790 -159 1110 -200 367 -46 890 -85
1158 -85 148 0 188 10 212 54 12 24 12 31 -1 54 -30 53 -22 53 -529 72 -531
21 -977 77 -1635 206 -105 21 -289 62 -309 70 -9 3 -16 10 -16 15 0 12 95 146
128 182 30 32 24 31 172 12z"/>
<path d="M3740 2675 c0 -13 9 -63 20 -110 38 -165 22 -280 -52 -356 -76 -78
-211 -118 -403 -119 -155 0 -210 11 -1065 219 -699 169 -1012 242 -1018 237
-7 -8 449 -224 998 -473 668 -304 812 -362 1095 -440 127 -35 135 -36 356 -40
215 -5 229 -4 275 16 76 34 120 68 159 125 118 171 97 405 -57 643 -85 130
-264 323 -300 323 -4 0 -8 -11 -8 -25z"/>
</g>
</svg>
